G04 #@! TF.GenerationSoftware,KiCad,Pcbnew,(5.1.0-0)*
G04 #@! TF.CreationDate,2020-07-07T18:13:47+01:00*
G04 #@! TF.ProjectId,autoFan,6175746f-4661-46e2-9e6b-696361645f70,rev?*
G04 #@! TF.SameCoordinates,Original*
G04 #@! TF.FileFunction,Soldermask,Bot*
G04 #@! TF.FilePolarity,Negative*
%FSLAX46Y46*%
G04 Gerber Fmt 4.6, Leading zero omitted, Abs format (unit mm)*
G04 Created by KiCad (PCBNEW (5.1.0-0)) date 2020-07-07 18:13:47*
%MOMM*%
%LPD*%
G04 APERTURE LIST*
%ADD10C,0.100000*%
G04 APERTURE END LIST*
D10*
G36*
X202474795Y-122380156D02*
G01*
X202581150Y-122401311D01*
X202681334Y-122442809D01*
X202781520Y-122484307D01*
X202961844Y-122604795D01*
X203115205Y-122758156D01*
X203235693Y-122938480D01*
X203318689Y-123138851D01*
X203361000Y-123351560D01*
X203361000Y-123568440D01*
X203318689Y-123781149D01*
X203235693Y-123981520D01*
X203115205Y-124161844D01*
X202961844Y-124315205D01*
X202781520Y-124435693D01*
X202581150Y-124518689D01*
X202474795Y-124539844D01*
X202368440Y-124561000D01*
X202151560Y-124561000D01*
X202045205Y-124539844D01*
X201938850Y-124518689D01*
X201738480Y-124435693D01*
X201558156Y-124315205D01*
X201404795Y-124161844D01*
X201284307Y-123981520D01*
X201201311Y-123781149D01*
X201159000Y-123568440D01*
X201159000Y-123351560D01*
X201201311Y-123138851D01*
X201284307Y-122938480D01*
X201404795Y-122758156D01*
X201558156Y-122604795D01*
X201738480Y-122484307D01*
X201838666Y-122442809D01*
X201938850Y-122401311D01*
X202045205Y-122380156D01*
X202151560Y-122359000D01*
X202368440Y-122359000D01*
X202474795Y-122380156D01*
X202474795Y-122380156D01*
G37*
G36*
X198244795Y-122380156D02*
G01*
X198351150Y-122401311D01*
X198451334Y-122442809D01*
X198551520Y-122484307D01*
X198731844Y-122604795D01*
X198885205Y-122758156D01*
X199005693Y-122938480D01*
X199088689Y-123138851D01*
X199131000Y-123351560D01*
X199131000Y-123568440D01*
X199088689Y-123781149D01*
X199005693Y-123981520D01*
X198885205Y-124161844D01*
X198731844Y-124315205D01*
X198551520Y-124435693D01*
X198351150Y-124518689D01*
X198244795Y-124539844D01*
X198138440Y-124561000D01*
X197921560Y-124561000D01*
X197815205Y-124539844D01*
X197708850Y-124518689D01*
X197508480Y-124435693D01*
X197328156Y-124315205D01*
X197174795Y-124161844D01*
X197054307Y-123981520D01*
X196971311Y-123781149D01*
X196929000Y-123568440D01*
X196929000Y-123351560D01*
X196971311Y-123138851D01*
X197054307Y-122938480D01*
X197174795Y-122758156D01*
X197328156Y-122604795D01*
X197508480Y-122484307D01*
X197608666Y-122442809D01*
X197708850Y-122401311D01*
X197815205Y-122380156D01*
X197921560Y-122359000D01*
X198138440Y-122359000D01*
X198244795Y-122380156D01*
X198244795Y-122380156D01*
G37*
G36*
X177770442Y-121635518D02*
G01*
X177836627Y-121642037D01*
X178006466Y-121693557D01*
X178162991Y-121777222D01*
X178198729Y-121806552D01*
X178300186Y-121889814D01*
X178383448Y-121991271D01*
X178412778Y-122027009D01*
X178496443Y-122183534D01*
X178547963Y-122353373D01*
X178565359Y-122530000D01*
X178547963Y-122706627D01*
X178496443Y-122876466D01*
X178412778Y-123032991D01*
X178383448Y-123068729D01*
X178300186Y-123170186D01*
X178198729Y-123253448D01*
X178162991Y-123282778D01*
X178006466Y-123366443D01*
X177836627Y-123417963D01*
X177770443Y-123424481D01*
X177704260Y-123431000D01*
X177615740Y-123431000D01*
X177549557Y-123424481D01*
X177483373Y-123417963D01*
X177313534Y-123366443D01*
X177157009Y-123282778D01*
X177121271Y-123253448D01*
X177019814Y-123170186D01*
X176936552Y-123068729D01*
X176907222Y-123032991D01*
X176823557Y-122876466D01*
X176772037Y-122706627D01*
X176754641Y-122530000D01*
X176772037Y-122353373D01*
X176823557Y-122183534D01*
X176907222Y-122027009D01*
X176936552Y-121991271D01*
X177019814Y-121889814D01*
X177121271Y-121806552D01*
X177157009Y-121777222D01*
X177313534Y-121693557D01*
X177483373Y-121642037D01*
X177549558Y-121635518D01*
X177615740Y-121629000D01*
X177704260Y-121629000D01*
X177770442Y-121635518D01*
X177770442Y-121635518D01*
G37*
G36*
X175230442Y-121635518D02*
G01*
X175296627Y-121642037D01*
X175466466Y-121693557D01*
X175622991Y-121777222D01*
X175658729Y-121806552D01*
X175760186Y-121889814D01*
X175843448Y-121991271D01*
X175872778Y-122027009D01*
X175956443Y-122183534D01*
X176007963Y-122353373D01*
X176025359Y-122530000D01*
X176007963Y-122706627D01*
X175956443Y-122876466D01*
X175872778Y-123032991D01*
X175843448Y-123068729D01*
X175760186Y-123170186D01*
X175658729Y-123253448D01*
X175622991Y-123282778D01*
X175466466Y-123366443D01*
X175296627Y-123417963D01*
X175230443Y-123424481D01*
X175164260Y-123431000D01*
X175075740Y-123431000D01*
X175009557Y-123424481D01*
X174943373Y-123417963D01*
X174773534Y-123366443D01*
X174617009Y-123282778D01*
X174581271Y-123253448D01*
X174479814Y-123170186D01*
X174396552Y-123068729D01*
X174367222Y-123032991D01*
X174283557Y-122876466D01*
X174232037Y-122706627D01*
X174214641Y-122530000D01*
X174232037Y-122353373D01*
X174283557Y-122183534D01*
X174367222Y-122027009D01*
X174396552Y-121991271D01*
X174479814Y-121889814D01*
X174581271Y-121806552D01*
X174617009Y-121777222D01*
X174773534Y-121693557D01*
X174943373Y-121642037D01*
X175009558Y-121635518D01*
X175075740Y-121629000D01*
X175164260Y-121629000D01*
X175230442Y-121635518D01*
X175230442Y-121635518D01*
G37*
G36*
X194866823Y-119881313D02*
G01*
X195027242Y-119929976D01*
X195094361Y-119965852D01*
X195175078Y-120008996D01*
X195304659Y-120115341D01*
X195411004Y-120244922D01*
X195411005Y-120244924D01*
X195490024Y-120392758D01*
X195538687Y-120553177D01*
X195555117Y-120720000D01*
X195538687Y-120886823D01*
X195490024Y-121047242D01*
X195449477Y-121123100D01*
X195411004Y-121195078D01*
X195304659Y-121324659D01*
X195175078Y-121431004D01*
X195175076Y-121431005D01*
X195027242Y-121510024D01*
X194866823Y-121558687D01*
X194741804Y-121571000D01*
X194658196Y-121571000D01*
X194533177Y-121558687D01*
X194372758Y-121510024D01*
X194224924Y-121431005D01*
X194224922Y-121431004D01*
X194095341Y-121324659D01*
X193988996Y-121195078D01*
X193950523Y-121123100D01*
X193909976Y-121047242D01*
X193861313Y-120886823D01*
X193844883Y-120720000D01*
X193861313Y-120553177D01*
X193909976Y-120392758D01*
X193988995Y-120244924D01*
X193988996Y-120244922D01*
X194095341Y-120115341D01*
X194224922Y-120008996D01*
X194305639Y-119965852D01*
X194372758Y-119929976D01*
X194533177Y-119881313D01*
X194658196Y-119869000D01*
X194741804Y-119869000D01*
X194866823Y-119881313D01*
X194866823Y-119881313D01*
G37*
G36*
X192408228Y-119901703D02*
G01*
X192563100Y-119965853D01*
X192702481Y-120058985D01*
X192821015Y-120177519D01*
X192914147Y-120316900D01*
X192978297Y-120471772D01*
X193011000Y-120636184D01*
X193011000Y-120803816D01*
X192978297Y-120968228D01*
X192914147Y-121123100D01*
X192821015Y-121262481D01*
X192702481Y-121381015D01*
X192563100Y-121474147D01*
X192408228Y-121538297D01*
X192243816Y-121571000D01*
X192076184Y-121571000D01*
X191911772Y-121538297D01*
X191756900Y-121474147D01*
X191617519Y-121381015D01*
X191498985Y-121262481D01*
X191405853Y-121123100D01*
X191341703Y-120968228D01*
X191309000Y-120803816D01*
X191309000Y-120636184D01*
X191341703Y-120471772D01*
X191405853Y-120316900D01*
X191498985Y-120177519D01*
X191617519Y-120058985D01*
X191756900Y-119965853D01*
X191911772Y-119901703D01*
X192076184Y-119869000D01*
X192243816Y-119869000D01*
X192408228Y-119901703D01*
X192408228Y-119901703D01*
G37*
G36*
X177770442Y-119095518D02*
G01*
X177836627Y-119102037D01*
X178006466Y-119153557D01*
X178162991Y-119237222D01*
X178198729Y-119266552D01*
X178300186Y-119349814D01*
X178383448Y-119451271D01*
X178412778Y-119487009D01*
X178496443Y-119643534D01*
X178547963Y-119813373D01*
X178565359Y-119990000D01*
X178547963Y-120166627D01*
X178496443Y-120336466D01*
X178412778Y-120492991D01*
X178383448Y-120528729D01*
X178300186Y-120630186D01*
X178198729Y-120713448D01*
X178162991Y-120742778D01*
X178006466Y-120826443D01*
X177836627Y-120877963D01*
X177770442Y-120884482D01*
X177704260Y-120891000D01*
X177615740Y-120891000D01*
X177549558Y-120884482D01*
X177483373Y-120877963D01*
X177313534Y-120826443D01*
X177157009Y-120742778D01*
X177121271Y-120713448D01*
X177019814Y-120630186D01*
X176936552Y-120528729D01*
X176907222Y-120492991D01*
X176823557Y-120336466D01*
X176772037Y-120166627D01*
X176754641Y-119990000D01*
X176772037Y-119813373D01*
X176823557Y-119643534D01*
X176907222Y-119487009D01*
X176936552Y-119451271D01*
X177019814Y-119349814D01*
X177121271Y-119266552D01*
X177157009Y-119237222D01*
X177313534Y-119153557D01*
X177483373Y-119102037D01*
X177549558Y-119095518D01*
X177615740Y-119089000D01*
X177704260Y-119089000D01*
X177770442Y-119095518D01*
X177770442Y-119095518D01*
G37*
G36*
X175230442Y-119095518D02*
G01*
X175296627Y-119102037D01*
X175466466Y-119153557D01*
X175622991Y-119237222D01*
X175658729Y-119266552D01*
X175760186Y-119349814D01*
X175843448Y-119451271D01*
X175872778Y-119487009D01*
X175956443Y-119643534D01*
X176007963Y-119813373D01*
X176025359Y-119990000D01*
X176007963Y-120166627D01*
X175956443Y-120336466D01*
X175872778Y-120492991D01*
X175843448Y-120528729D01*
X175760186Y-120630186D01*
X175658729Y-120713448D01*
X175622991Y-120742778D01*
X175466466Y-120826443D01*
X175296627Y-120877963D01*
X175230442Y-120884482D01*
X175164260Y-120891000D01*
X175075740Y-120891000D01*
X175009558Y-120884482D01*
X174943373Y-120877963D01*
X174773534Y-120826443D01*
X174617009Y-120742778D01*
X174581271Y-120713448D01*
X174479814Y-120630186D01*
X174396552Y-120528729D01*
X174367222Y-120492991D01*
X174283557Y-120336466D01*
X174232037Y-120166627D01*
X174214641Y-119990000D01*
X174232037Y-119813373D01*
X174283557Y-119643534D01*
X174367222Y-119487009D01*
X174396552Y-119451271D01*
X174479814Y-119349814D01*
X174581271Y-119266552D01*
X174617009Y-119237222D01*
X174773534Y-119153557D01*
X174943373Y-119102037D01*
X175009558Y-119095518D01*
X175075740Y-119089000D01*
X175164260Y-119089000D01*
X175230442Y-119095518D01*
X175230442Y-119095518D01*
G37*
G36*
X202420443Y-118335519D02*
G01*
X202486627Y-118342037D01*
X202656466Y-118393557D01*
X202812991Y-118477222D01*
X202848729Y-118506552D01*
X202950186Y-118589814D01*
X203033448Y-118691271D01*
X203062778Y-118727009D01*
X203146443Y-118883534D01*
X203197963Y-119053373D01*
X203215359Y-119230000D01*
X203197963Y-119406627D01*
X203146443Y-119576466D01*
X203062778Y-119732991D01*
X203033448Y-119768729D01*
X202950186Y-119870186D01*
X202848729Y-119953448D01*
X202812991Y-119982778D01*
X202656466Y-120066443D01*
X202486627Y-120117963D01*
X202420443Y-120124481D01*
X202354260Y-120131000D01*
X202265740Y-120131000D01*
X202199557Y-120124481D01*
X202133373Y-120117963D01*
X201963534Y-120066443D01*
X201807009Y-119982778D01*
X201771271Y-119953448D01*
X201669814Y-119870186D01*
X201586552Y-119768729D01*
X201557222Y-119732991D01*
X201473557Y-119576466D01*
X201422037Y-119406627D01*
X201404641Y-119230000D01*
X201422037Y-119053373D01*
X201473557Y-118883534D01*
X201557222Y-118727009D01*
X201586552Y-118691271D01*
X201669814Y-118589814D01*
X201771271Y-118506552D01*
X201807009Y-118477222D01*
X201963534Y-118393557D01*
X202133373Y-118342037D01*
X202199557Y-118335519D01*
X202265740Y-118329000D01*
X202354260Y-118329000D01*
X202420443Y-118335519D01*
X202420443Y-118335519D01*
G37*
G36*
X200671000Y-120131000D02*
G01*
X198869000Y-120131000D01*
X198869000Y-118329000D01*
X200671000Y-118329000D01*
X200671000Y-120131000D01*
X200671000Y-120131000D01*
G37*
G36*
X177770443Y-116555519D02*
G01*
X177836627Y-116562037D01*
X178006466Y-116613557D01*
X178162991Y-116697222D01*
X178198729Y-116726552D01*
X178300186Y-116809814D01*
X178383448Y-116911271D01*
X178412778Y-116947009D01*
X178496443Y-117103534D01*
X178547963Y-117273373D01*
X178565359Y-117450000D01*
X178547963Y-117626627D01*
X178496443Y-117796466D01*
X178412778Y-117952991D01*
X178383448Y-117988729D01*
X178300186Y-118090186D01*
X178198729Y-118173448D01*
X178162991Y-118202778D01*
X178006466Y-118286443D01*
X177836627Y-118337963D01*
X177795262Y-118342037D01*
X177704260Y-118351000D01*
X177615740Y-118351000D01*
X177524738Y-118342037D01*
X177483373Y-118337963D01*
X177313534Y-118286443D01*
X177157009Y-118202778D01*
X177121271Y-118173448D01*
X177019814Y-118090186D01*
X176936552Y-117988729D01*
X176907222Y-117952991D01*
X176823557Y-117796466D01*
X176772037Y-117626627D01*
X176754641Y-117450000D01*
X176772037Y-117273373D01*
X176823557Y-117103534D01*
X176907222Y-116947009D01*
X176936552Y-116911271D01*
X177019814Y-116809814D01*
X177121271Y-116726552D01*
X177157009Y-116697222D01*
X177313534Y-116613557D01*
X177483373Y-116562037D01*
X177549557Y-116555519D01*
X177615740Y-116549000D01*
X177704260Y-116549000D01*
X177770443Y-116555519D01*
X177770443Y-116555519D01*
G37*
G36*
X176021000Y-118351000D02*
G01*
X174219000Y-118351000D01*
X174219000Y-116549000D01*
X176021000Y-116549000D01*
X176021000Y-118351000D01*
X176021000Y-118351000D01*
G37*
M02*
