G04 #@! TF.GenerationSoftware,KiCad,Pcbnew,(5.1.0-0)*
G04 #@! TF.CreationDate,2020-07-07T18:13:47+01:00*
G04 #@! TF.ProjectId,autoFan,6175746f-4661-46e2-9e6b-696361645f70,rev?*
G04 #@! TF.SameCoordinates,Original*
G04 #@! TF.FileFunction,Soldermask,Top*
G04 #@! TF.FilePolarity,Negative*
%FSLAX46Y46*%
G04 Gerber Fmt 4.6, Leading zero omitted, Abs format (unit mm)*
G04 Created by KiCad (PCBNEW (5.1.0-0)) date 2020-07-07 18:13:47*
%MOMM*%
%LPD*%
G04 APERTURE LIST*
%ADD10C,0.100000*%
G04 APERTURE END LIST*
D10*
G36*
X202474795Y-122380156D02*
G01*
X202581150Y-122401311D01*
X202681334Y-122442809D01*
X202781520Y-122484307D01*
X202961844Y-122604795D01*
X203115205Y-122758156D01*
X203235693Y-122938480D01*
X203318689Y-123138851D01*
X203361000Y-123351560D01*
X203361000Y-123568440D01*
X203318689Y-123781149D01*
X203235693Y-123981520D01*
X203115205Y-124161844D01*
X202961844Y-124315205D01*
X202781520Y-124435693D01*
X202581150Y-124518689D01*
X202474795Y-124539844D01*
X202368440Y-124561000D01*
X202151560Y-124561000D01*
X202045205Y-124539844D01*
X201938850Y-124518689D01*
X201738480Y-124435693D01*
X201558156Y-124315205D01*
X201404795Y-124161844D01*
X201284307Y-123981520D01*
X201201311Y-123781149D01*
X201159000Y-123568440D01*
X201159000Y-123351560D01*
X201201311Y-123138851D01*
X201284307Y-122938480D01*
X201404795Y-122758156D01*
X201558156Y-122604795D01*
X201738480Y-122484307D01*
X201838666Y-122442809D01*
X201938850Y-122401311D01*
X202045205Y-122380156D01*
X202151560Y-122359000D01*
X202368440Y-122359000D01*
X202474795Y-122380156D01*
X202474795Y-122380156D01*
G37*
G36*
X198244795Y-122380156D02*
G01*
X198351150Y-122401311D01*
X198451334Y-122442809D01*
X198551520Y-122484307D01*
X198731844Y-122604795D01*
X198885205Y-122758156D01*
X199005693Y-122938480D01*
X199088689Y-123138851D01*
X199131000Y-123351560D01*
X199131000Y-123568440D01*
X199088689Y-123781149D01*
X199005693Y-123981520D01*
X198885205Y-124161844D01*
X198731844Y-124315205D01*
X198551520Y-124435693D01*
X198351150Y-124518689D01*
X198244795Y-124539844D01*
X198138440Y-124561000D01*
X197921560Y-124561000D01*
X197815205Y-124539844D01*
X197708850Y-124518689D01*
X197508480Y-124435693D01*
X197328156Y-124315205D01*
X197174795Y-124161844D01*
X197054307Y-123981520D01*
X196971311Y-123781149D01*
X196929000Y-123568440D01*
X196929000Y-123351560D01*
X196971311Y-123138851D01*
X197054307Y-122938480D01*
X197174795Y-122758156D01*
X197328156Y-122604795D01*
X197508480Y-122484307D01*
X197608666Y-122442809D01*
X197708850Y-122401311D01*
X197815205Y-122380156D01*
X197921560Y-122359000D01*
X198138440Y-122359000D01*
X198244795Y-122380156D01*
X198244795Y-122380156D01*
G37*
G36*
X188416000Y-124511000D02*
G01*
X182164000Y-124511000D01*
X182164000Y-122809000D01*
X188416000Y-122809000D01*
X188416000Y-124511000D01*
X188416000Y-124511000D01*
G37*
G36*
X177770442Y-121635518D02*
G01*
X177836627Y-121642037D01*
X178006466Y-121693557D01*
X178162991Y-121777222D01*
X178198729Y-121806552D01*
X178300186Y-121889814D01*
X178383448Y-121991271D01*
X178412778Y-122027009D01*
X178496443Y-122183534D01*
X178547963Y-122353373D01*
X178565359Y-122530000D01*
X178547963Y-122706627D01*
X178496443Y-122876466D01*
X178412778Y-123032991D01*
X178383448Y-123068729D01*
X178300186Y-123170186D01*
X178198729Y-123253448D01*
X178162991Y-123282778D01*
X178006466Y-123366443D01*
X177836627Y-123417963D01*
X177770443Y-123424481D01*
X177704260Y-123431000D01*
X177615740Y-123431000D01*
X177549557Y-123424481D01*
X177483373Y-123417963D01*
X177313534Y-123366443D01*
X177157009Y-123282778D01*
X177121271Y-123253448D01*
X177019814Y-123170186D01*
X176936552Y-123068729D01*
X176907222Y-123032991D01*
X176823557Y-122876466D01*
X176772037Y-122706627D01*
X176754641Y-122530000D01*
X176772037Y-122353373D01*
X176823557Y-122183534D01*
X176907222Y-122027009D01*
X176936552Y-121991271D01*
X177019814Y-121889814D01*
X177121271Y-121806552D01*
X177157009Y-121777222D01*
X177313534Y-121693557D01*
X177483373Y-121642037D01*
X177549558Y-121635518D01*
X177615740Y-121629000D01*
X177704260Y-121629000D01*
X177770442Y-121635518D01*
X177770442Y-121635518D01*
G37*
G36*
X175230442Y-121635518D02*
G01*
X175296627Y-121642037D01*
X175466466Y-121693557D01*
X175622991Y-121777222D01*
X175658729Y-121806552D01*
X175760186Y-121889814D01*
X175843448Y-121991271D01*
X175872778Y-122027009D01*
X175956443Y-122183534D01*
X176007963Y-122353373D01*
X176025359Y-122530000D01*
X176007963Y-122706627D01*
X175956443Y-122876466D01*
X175872778Y-123032991D01*
X175843448Y-123068729D01*
X175760186Y-123170186D01*
X175658729Y-123253448D01*
X175622991Y-123282778D01*
X175466466Y-123366443D01*
X175296627Y-123417963D01*
X175230443Y-123424481D01*
X175164260Y-123431000D01*
X175075740Y-123431000D01*
X175009557Y-123424481D01*
X174943373Y-123417963D01*
X174773534Y-123366443D01*
X174617009Y-123282778D01*
X174581271Y-123253448D01*
X174479814Y-123170186D01*
X174396552Y-123068729D01*
X174367222Y-123032991D01*
X174283557Y-122876466D01*
X174232037Y-122706627D01*
X174214641Y-122530000D01*
X174232037Y-122353373D01*
X174283557Y-122183534D01*
X174367222Y-122027009D01*
X174396552Y-121991271D01*
X174479814Y-121889814D01*
X174581271Y-121806552D01*
X174617009Y-121777222D01*
X174773534Y-121693557D01*
X174943373Y-121642037D01*
X175009558Y-121635518D01*
X175075740Y-121629000D01*
X175164260Y-121629000D01*
X175230442Y-121635518D01*
X175230442Y-121635518D01*
G37*
G36*
X190391000Y-122536000D02*
G01*
X188689000Y-122536000D01*
X188689000Y-116284000D01*
X190391000Y-116284000D01*
X190391000Y-122536000D01*
X190391000Y-122536000D01*
G37*
G36*
X181891000Y-122536000D02*
G01*
X180189000Y-122536000D01*
X180189000Y-116284000D01*
X181891000Y-116284000D01*
X181891000Y-122536000D01*
X181891000Y-122536000D01*
G37*
G36*
X192408228Y-119901703D02*
G01*
X192563100Y-119965853D01*
X192702481Y-120058985D01*
X192821015Y-120177519D01*
X192914147Y-120316900D01*
X192978297Y-120471772D01*
X193011000Y-120636184D01*
X193011000Y-120803816D01*
X192978297Y-120968228D01*
X192914147Y-121123100D01*
X192821015Y-121262481D01*
X192702481Y-121381015D01*
X192563100Y-121474147D01*
X192408228Y-121538297D01*
X192243816Y-121571000D01*
X192076184Y-121571000D01*
X191911772Y-121538297D01*
X191756900Y-121474147D01*
X191617519Y-121381015D01*
X191498985Y-121262481D01*
X191405853Y-121123100D01*
X191341703Y-120968228D01*
X191309000Y-120803816D01*
X191309000Y-120636184D01*
X191341703Y-120471772D01*
X191405853Y-120316900D01*
X191498985Y-120177519D01*
X191617519Y-120058985D01*
X191756900Y-119965853D01*
X191911772Y-119901703D01*
X192076184Y-119869000D01*
X192243816Y-119869000D01*
X192408228Y-119901703D01*
X192408228Y-119901703D01*
G37*
G36*
X194866823Y-119881313D02*
G01*
X195027242Y-119929976D01*
X195094361Y-119965852D01*
X195175078Y-120008996D01*
X195304659Y-120115341D01*
X195411004Y-120244922D01*
X195411005Y-120244924D01*
X195490024Y-120392758D01*
X195538687Y-120553177D01*
X195555117Y-120720000D01*
X195538687Y-120886823D01*
X195490024Y-121047242D01*
X195449477Y-121123100D01*
X195411004Y-121195078D01*
X195304659Y-121324659D01*
X195175078Y-121431004D01*
X195175076Y-121431005D01*
X195027242Y-121510024D01*
X194866823Y-121558687D01*
X194741804Y-121571000D01*
X194658196Y-121571000D01*
X194533177Y-121558687D01*
X194372758Y-121510024D01*
X194224924Y-121431005D01*
X194224922Y-121431004D01*
X194095341Y-121324659D01*
X193988996Y-121195078D01*
X193950523Y-121123100D01*
X193909976Y-121047242D01*
X193861313Y-120886823D01*
X193844883Y-120720000D01*
X193861313Y-120553177D01*
X193909976Y-120392758D01*
X193988995Y-120244924D01*
X193988996Y-120244922D01*
X194095341Y-120115341D01*
X194224922Y-120008996D01*
X194305639Y-119965852D01*
X194372758Y-119929976D01*
X194533177Y-119881313D01*
X194658196Y-119869000D01*
X194741804Y-119869000D01*
X194866823Y-119881313D01*
X194866823Y-119881313D01*
G37*
G36*
X175230442Y-119095518D02*
G01*
X175296627Y-119102037D01*
X175466466Y-119153557D01*
X175622991Y-119237222D01*
X175658729Y-119266552D01*
X175760186Y-119349814D01*
X175843448Y-119451271D01*
X175872778Y-119487009D01*
X175956443Y-119643534D01*
X176007963Y-119813373D01*
X176025359Y-119990000D01*
X176007963Y-120166627D01*
X175956443Y-120336466D01*
X175872778Y-120492991D01*
X175843448Y-120528729D01*
X175760186Y-120630186D01*
X175658729Y-120713448D01*
X175622991Y-120742778D01*
X175466466Y-120826443D01*
X175296627Y-120877963D01*
X175230442Y-120884482D01*
X175164260Y-120891000D01*
X175075740Y-120891000D01*
X175009558Y-120884482D01*
X174943373Y-120877963D01*
X174773534Y-120826443D01*
X174617009Y-120742778D01*
X174581271Y-120713448D01*
X174479814Y-120630186D01*
X174396552Y-120528729D01*
X174367222Y-120492991D01*
X174283557Y-120336466D01*
X174232037Y-120166627D01*
X174214641Y-119990000D01*
X174232037Y-119813373D01*
X174283557Y-119643534D01*
X174367222Y-119487009D01*
X174396552Y-119451271D01*
X174479814Y-119349814D01*
X174581271Y-119266552D01*
X174617009Y-119237222D01*
X174773534Y-119153557D01*
X174943373Y-119102037D01*
X175009558Y-119095518D01*
X175075740Y-119089000D01*
X175164260Y-119089000D01*
X175230442Y-119095518D01*
X175230442Y-119095518D01*
G37*
G36*
X177770442Y-119095518D02*
G01*
X177836627Y-119102037D01*
X178006466Y-119153557D01*
X178162991Y-119237222D01*
X178198729Y-119266552D01*
X178300186Y-119349814D01*
X178383448Y-119451271D01*
X178412778Y-119487009D01*
X178496443Y-119643534D01*
X178547963Y-119813373D01*
X178565359Y-119990000D01*
X178547963Y-120166627D01*
X178496443Y-120336466D01*
X178412778Y-120492991D01*
X178383448Y-120528729D01*
X178300186Y-120630186D01*
X178198729Y-120713448D01*
X178162991Y-120742778D01*
X178006466Y-120826443D01*
X177836627Y-120877963D01*
X177770442Y-120884482D01*
X177704260Y-120891000D01*
X177615740Y-120891000D01*
X177549558Y-120884482D01*
X177483373Y-120877963D01*
X177313534Y-120826443D01*
X177157009Y-120742778D01*
X177121271Y-120713448D01*
X177019814Y-120630186D01*
X176936552Y-120528729D01*
X176907222Y-120492991D01*
X176823557Y-120336466D01*
X176772037Y-120166627D01*
X176754641Y-119990000D01*
X176772037Y-119813373D01*
X176823557Y-119643534D01*
X176907222Y-119487009D01*
X176936552Y-119451271D01*
X177019814Y-119349814D01*
X177121271Y-119266552D01*
X177157009Y-119237222D01*
X177313534Y-119153557D01*
X177483373Y-119102037D01*
X177549558Y-119095518D01*
X177615740Y-119089000D01*
X177704260Y-119089000D01*
X177770442Y-119095518D01*
X177770442Y-119095518D01*
G37*
G36*
X200671000Y-120131000D02*
G01*
X198869000Y-120131000D01*
X198869000Y-118329000D01*
X200671000Y-118329000D01*
X200671000Y-120131000D01*
X200671000Y-120131000D01*
G37*
G36*
X202420443Y-118335519D02*
G01*
X202486627Y-118342037D01*
X202656466Y-118393557D01*
X202656468Y-118393558D01*
X202691286Y-118412169D01*
X202812991Y-118477222D01*
X202826199Y-118488062D01*
X202950186Y-118589814D01*
X203027481Y-118684000D01*
X203062778Y-118727009D01*
X203146443Y-118883534D01*
X203197963Y-119053373D01*
X203215359Y-119230000D01*
X203197963Y-119406627D01*
X203146443Y-119576466D01*
X203062778Y-119732991D01*
X203033448Y-119768729D01*
X202950186Y-119870186D01*
X202848729Y-119953448D01*
X202812991Y-119982778D01*
X202656466Y-120066443D01*
X202486627Y-120117963D01*
X202420443Y-120124481D01*
X202354260Y-120131000D01*
X202265740Y-120131000D01*
X202199557Y-120124481D01*
X202133373Y-120117963D01*
X201963534Y-120066443D01*
X201807009Y-119982778D01*
X201771271Y-119953448D01*
X201669814Y-119870186D01*
X201586552Y-119768729D01*
X201557222Y-119732991D01*
X201473557Y-119576466D01*
X201422037Y-119406627D01*
X201404641Y-119230000D01*
X201422037Y-119053373D01*
X201473557Y-118883534D01*
X201557222Y-118727009D01*
X201592519Y-118684000D01*
X201669814Y-118589814D01*
X201793801Y-118488062D01*
X201807009Y-118477222D01*
X201928714Y-118412169D01*
X201963532Y-118393558D01*
X201963534Y-118393557D01*
X202133373Y-118342037D01*
X202199557Y-118335519D01*
X202265740Y-118329000D01*
X202354260Y-118329000D01*
X202420443Y-118335519D01*
X202420443Y-118335519D01*
G37*
G36*
X192456938Y-118401716D02*
G01*
X192477557Y-118407971D01*
X192496553Y-118418124D01*
X192513208Y-118431792D01*
X192526876Y-118448447D01*
X192537029Y-118467443D01*
X192543284Y-118488062D01*
X192546000Y-118515640D01*
X192546000Y-119024360D01*
X192543284Y-119051938D01*
X192537029Y-119072557D01*
X192526876Y-119091553D01*
X192513208Y-119108208D01*
X192496553Y-119121876D01*
X192477557Y-119132029D01*
X192456938Y-119138284D01*
X192429360Y-119141000D01*
X191970640Y-119141000D01*
X191943062Y-119138284D01*
X191922443Y-119132029D01*
X191903447Y-119121876D01*
X191886792Y-119108208D01*
X191873124Y-119091553D01*
X191862971Y-119072557D01*
X191856716Y-119051938D01*
X191854000Y-119024360D01*
X191854000Y-118515640D01*
X191856716Y-118488062D01*
X191862971Y-118467443D01*
X191873124Y-118448447D01*
X191886792Y-118431792D01*
X191903447Y-118418124D01*
X191922443Y-118407971D01*
X191943062Y-118401716D01*
X191970640Y-118399000D01*
X192429360Y-118399000D01*
X192456938Y-118401716D01*
X192456938Y-118401716D01*
G37*
G36*
X191486938Y-118401716D02*
G01*
X191507557Y-118407971D01*
X191526553Y-118418124D01*
X191543208Y-118431792D01*
X191556876Y-118448447D01*
X191567029Y-118467443D01*
X191573284Y-118488062D01*
X191576000Y-118515640D01*
X191576000Y-119024360D01*
X191573284Y-119051938D01*
X191567029Y-119072557D01*
X191556876Y-119091553D01*
X191543208Y-119108208D01*
X191526553Y-119121876D01*
X191507557Y-119132029D01*
X191486938Y-119138284D01*
X191459360Y-119141000D01*
X191000640Y-119141000D01*
X190973062Y-119138284D01*
X190952443Y-119132029D01*
X190933447Y-119121876D01*
X190916792Y-119108208D01*
X190903124Y-119091553D01*
X190892971Y-119072557D01*
X190886716Y-119051938D01*
X190884000Y-119024360D01*
X190884000Y-118515640D01*
X190886716Y-118488062D01*
X190892971Y-118467443D01*
X190903124Y-118448447D01*
X190916792Y-118431792D01*
X190933447Y-118418124D01*
X190952443Y-118407971D01*
X190973062Y-118401716D01*
X191000640Y-118399000D01*
X191459360Y-118399000D01*
X191486938Y-118401716D01*
X191486938Y-118401716D01*
G37*
G36*
X176021000Y-118351000D02*
G01*
X174219000Y-118351000D01*
X174219000Y-116549000D01*
X176021000Y-116549000D01*
X176021000Y-118351000D01*
X176021000Y-118351000D01*
G37*
G36*
X177770443Y-116555519D02*
G01*
X177836627Y-116562037D01*
X178006466Y-116613557D01*
X178162991Y-116697222D01*
X178198729Y-116726552D01*
X178300186Y-116809814D01*
X178375473Y-116901553D01*
X178412778Y-116947009D01*
X178496443Y-117103534D01*
X178547963Y-117273373D01*
X178565359Y-117450000D01*
X178547963Y-117626627D01*
X178496443Y-117796466D01*
X178412778Y-117952991D01*
X178383448Y-117988729D01*
X178300186Y-118090186D01*
X178198729Y-118173448D01*
X178162991Y-118202778D01*
X178006466Y-118286443D01*
X177836627Y-118337963D01*
X177795262Y-118342037D01*
X177704260Y-118351000D01*
X177615740Y-118351000D01*
X177524738Y-118342037D01*
X177483373Y-118337963D01*
X177313534Y-118286443D01*
X177157009Y-118202778D01*
X177121271Y-118173448D01*
X177019814Y-118090186D01*
X176936552Y-117988729D01*
X176907222Y-117952991D01*
X176823557Y-117796466D01*
X176772037Y-117626627D01*
X176754641Y-117450000D01*
X176772037Y-117273373D01*
X176823557Y-117103534D01*
X176907222Y-116947009D01*
X176944527Y-116901553D01*
X177019814Y-116809814D01*
X177121271Y-116726552D01*
X177157009Y-116697222D01*
X177313534Y-116613557D01*
X177483373Y-116562037D01*
X177549557Y-116555519D01*
X177615740Y-116549000D01*
X177704260Y-116549000D01*
X177770443Y-116555519D01*
X177770443Y-116555519D01*
G37*
G36*
X197591000Y-117361000D02*
G01*
X194989000Y-117361000D01*
X194989000Y-115459000D01*
X197591000Y-115459000D01*
X197591000Y-117361000D01*
X197591000Y-117361000D01*
G37*
G36*
X193591000Y-117361000D02*
G01*
X190989000Y-117361000D01*
X190989000Y-115459000D01*
X193591000Y-115459000D01*
X193591000Y-117361000D01*
X193591000Y-117361000D01*
G37*
G36*
X199339591Y-116245585D02*
G01*
X199373569Y-116255893D01*
X199404890Y-116272634D01*
X199432339Y-116295161D01*
X199454866Y-116322610D01*
X199471607Y-116353931D01*
X199481915Y-116387909D01*
X199486000Y-116429390D01*
X199486000Y-117030610D01*
X199481915Y-117072091D01*
X199471607Y-117106069D01*
X199454866Y-117137390D01*
X199432339Y-117164839D01*
X199404890Y-117187366D01*
X199373569Y-117204107D01*
X199339591Y-117214415D01*
X199298110Y-117218500D01*
X198621890Y-117218500D01*
X198580409Y-117214415D01*
X198546431Y-117204107D01*
X198515110Y-117187366D01*
X198487661Y-117164839D01*
X198465134Y-117137390D01*
X198448393Y-117106069D01*
X198438085Y-117072091D01*
X198434000Y-117030610D01*
X198434000Y-116429390D01*
X198438085Y-116387909D01*
X198448393Y-116353931D01*
X198465134Y-116322610D01*
X198487661Y-116295161D01*
X198515110Y-116272634D01*
X198546431Y-116255893D01*
X198580409Y-116245585D01*
X198621890Y-116241500D01*
X199298110Y-116241500D01*
X199339591Y-116245585D01*
X199339591Y-116245585D01*
G37*
G36*
X200511938Y-116291716D02*
G01*
X200532557Y-116297971D01*
X200551553Y-116308124D01*
X200568208Y-116321792D01*
X200581876Y-116338447D01*
X200592029Y-116357443D01*
X200598284Y-116378062D01*
X200601000Y-116405640D01*
X200601000Y-116864360D01*
X200598284Y-116891938D01*
X200592029Y-116912557D01*
X200581876Y-116931553D01*
X200568208Y-116948208D01*
X200551553Y-116961876D01*
X200532557Y-116972029D01*
X200511938Y-116978284D01*
X200484360Y-116981000D01*
X199975640Y-116981000D01*
X199948062Y-116978284D01*
X199927443Y-116972029D01*
X199908447Y-116961876D01*
X199891792Y-116948208D01*
X199878124Y-116931553D01*
X199867971Y-116912557D01*
X199861716Y-116891938D01*
X199859000Y-116864360D01*
X199859000Y-116405640D01*
X199861716Y-116378062D01*
X199867971Y-116357443D01*
X199878124Y-116338447D01*
X199891792Y-116321792D01*
X199908447Y-116308124D01*
X199927443Y-116297971D01*
X199948062Y-116291716D01*
X199975640Y-116289000D01*
X200484360Y-116289000D01*
X200511938Y-116291716D01*
X200511938Y-116291716D01*
G37*
G36*
X201571938Y-116261716D02*
G01*
X201592557Y-116267971D01*
X201611553Y-116278124D01*
X201628208Y-116291792D01*
X201641876Y-116308447D01*
X201652029Y-116327443D01*
X201658284Y-116348062D01*
X201661000Y-116375640D01*
X201661000Y-116834360D01*
X201658284Y-116861938D01*
X201652029Y-116882557D01*
X201641876Y-116901553D01*
X201628208Y-116918208D01*
X201611553Y-116931876D01*
X201592557Y-116942029D01*
X201571938Y-116948284D01*
X201544360Y-116951000D01*
X201035640Y-116951000D01*
X201008062Y-116948284D01*
X200987443Y-116942029D01*
X200968447Y-116931876D01*
X200951792Y-116918208D01*
X200938124Y-116901553D01*
X200927971Y-116882557D01*
X200921716Y-116861938D01*
X200919000Y-116834360D01*
X200919000Y-116375640D01*
X200921716Y-116348062D01*
X200927971Y-116327443D01*
X200938124Y-116308447D01*
X200951792Y-116291792D01*
X200968447Y-116278124D01*
X200987443Y-116267971D01*
X201008062Y-116261716D01*
X201035640Y-116259000D01*
X201544360Y-116259000D01*
X201571938Y-116261716D01*
X201571938Y-116261716D01*
G37*
G36*
X202591938Y-116251716D02*
G01*
X202612557Y-116257971D01*
X202631553Y-116268124D01*
X202648208Y-116281792D01*
X202661876Y-116298447D01*
X202672029Y-116317443D01*
X202678284Y-116338062D01*
X202681000Y-116365640D01*
X202681000Y-116824360D01*
X202678284Y-116851938D01*
X202672029Y-116872557D01*
X202661876Y-116891553D01*
X202648208Y-116908208D01*
X202631553Y-116921876D01*
X202612557Y-116932029D01*
X202591938Y-116938284D01*
X202564360Y-116941000D01*
X202055640Y-116941000D01*
X202028062Y-116938284D01*
X202007443Y-116932029D01*
X201988447Y-116921876D01*
X201971792Y-116908208D01*
X201958124Y-116891553D01*
X201947971Y-116872557D01*
X201941716Y-116851938D01*
X201939000Y-116824360D01*
X201939000Y-116365640D01*
X201941716Y-116338062D01*
X201947971Y-116317443D01*
X201958124Y-116298447D01*
X201971792Y-116281792D01*
X201988447Y-116268124D01*
X202007443Y-116257971D01*
X202028062Y-116251716D01*
X202055640Y-116249000D01*
X202564360Y-116249000D01*
X202591938Y-116251716D01*
X202591938Y-116251716D01*
G37*
G36*
X188416000Y-116011000D02*
G01*
X182164000Y-116011000D01*
X182164000Y-114309000D01*
X188416000Y-114309000D01*
X188416000Y-116011000D01*
X188416000Y-116011000D01*
G37*
G36*
X200511938Y-115321716D02*
G01*
X200532557Y-115327971D01*
X200551553Y-115338124D01*
X200568208Y-115351792D01*
X200581876Y-115368447D01*
X200592029Y-115387443D01*
X200598284Y-115408062D01*
X200601000Y-115435640D01*
X200601000Y-115894360D01*
X200598284Y-115921938D01*
X200592029Y-115942557D01*
X200581876Y-115961553D01*
X200568208Y-115978208D01*
X200551553Y-115991876D01*
X200532557Y-116002029D01*
X200511938Y-116008284D01*
X200484360Y-116011000D01*
X199975640Y-116011000D01*
X199948062Y-116008284D01*
X199927443Y-116002029D01*
X199908447Y-115991876D01*
X199891792Y-115978208D01*
X199878124Y-115961553D01*
X199867971Y-115942557D01*
X199861716Y-115921938D01*
X199859000Y-115894360D01*
X199859000Y-115435640D01*
X199861716Y-115408062D01*
X199867971Y-115387443D01*
X199878124Y-115368447D01*
X199891792Y-115351792D01*
X199908447Y-115338124D01*
X199927443Y-115327971D01*
X199948062Y-115321716D01*
X199975640Y-115319000D01*
X200484360Y-115319000D01*
X200511938Y-115321716D01*
X200511938Y-115321716D01*
G37*
G36*
X201571938Y-115291716D02*
G01*
X201592557Y-115297971D01*
X201611553Y-115308124D01*
X201628208Y-115321792D01*
X201641876Y-115338447D01*
X201652029Y-115357443D01*
X201658284Y-115378062D01*
X201661000Y-115405640D01*
X201661000Y-115864360D01*
X201658284Y-115891938D01*
X201652029Y-115912557D01*
X201641876Y-115931553D01*
X201628208Y-115948208D01*
X201611553Y-115961876D01*
X201592557Y-115972029D01*
X201571938Y-115978284D01*
X201544360Y-115981000D01*
X201035640Y-115981000D01*
X201008062Y-115978284D01*
X200987443Y-115972029D01*
X200968447Y-115961876D01*
X200951792Y-115948208D01*
X200938124Y-115931553D01*
X200927971Y-115912557D01*
X200921716Y-115891938D01*
X200919000Y-115864360D01*
X200919000Y-115405640D01*
X200921716Y-115378062D01*
X200927971Y-115357443D01*
X200938124Y-115338447D01*
X200951792Y-115321792D01*
X200968447Y-115308124D01*
X200987443Y-115297971D01*
X201008062Y-115291716D01*
X201035640Y-115289000D01*
X201544360Y-115289000D01*
X201571938Y-115291716D01*
X201571938Y-115291716D01*
G37*
G36*
X202591938Y-115281716D02*
G01*
X202612557Y-115287971D01*
X202631553Y-115298124D01*
X202648208Y-115311792D01*
X202661876Y-115328447D01*
X202672029Y-115347443D01*
X202678284Y-115368062D01*
X202681000Y-115395640D01*
X202681000Y-115854360D01*
X202678284Y-115881938D01*
X202672029Y-115902557D01*
X202661876Y-115921553D01*
X202648208Y-115938208D01*
X202631553Y-115951876D01*
X202612557Y-115962029D01*
X202591938Y-115968284D01*
X202564360Y-115971000D01*
X202055640Y-115971000D01*
X202028062Y-115968284D01*
X202007443Y-115962029D01*
X201988447Y-115951876D01*
X201971792Y-115938208D01*
X201958124Y-115921553D01*
X201947971Y-115902557D01*
X201941716Y-115881938D01*
X201939000Y-115854360D01*
X201939000Y-115395640D01*
X201941716Y-115368062D01*
X201947971Y-115347443D01*
X201958124Y-115328447D01*
X201971792Y-115311792D01*
X201988447Y-115298124D01*
X202007443Y-115287971D01*
X202028062Y-115281716D01*
X202055640Y-115279000D01*
X202564360Y-115279000D01*
X202591938Y-115281716D01*
X202591938Y-115281716D01*
G37*
G36*
X199339591Y-114670585D02*
G01*
X199373569Y-114680893D01*
X199404890Y-114697634D01*
X199432339Y-114720161D01*
X199454866Y-114747610D01*
X199471607Y-114778931D01*
X199481915Y-114812909D01*
X199486000Y-114854390D01*
X199486000Y-115455610D01*
X199481915Y-115497091D01*
X199471607Y-115531069D01*
X199454866Y-115562390D01*
X199432339Y-115589839D01*
X199404890Y-115612366D01*
X199373569Y-115629107D01*
X199339591Y-115639415D01*
X199298110Y-115643500D01*
X198621890Y-115643500D01*
X198580409Y-115639415D01*
X198546431Y-115629107D01*
X198515110Y-115612366D01*
X198487661Y-115589839D01*
X198465134Y-115562390D01*
X198448393Y-115531069D01*
X198438085Y-115497091D01*
X198434000Y-115455610D01*
X198434000Y-114854390D01*
X198438085Y-114812909D01*
X198448393Y-114778931D01*
X198465134Y-114747610D01*
X198487661Y-114720161D01*
X198515110Y-114697634D01*
X198546431Y-114680893D01*
X198580409Y-114670585D01*
X198621890Y-114666500D01*
X199298110Y-114666500D01*
X199339591Y-114670585D01*
X199339591Y-114670585D01*
G37*
G36*
X175776938Y-114091716D02*
G01*
X175797557Y-114097971D01*
X175816553Y-114108124D01*
X175833208Y-114121792D01*
X175846876Y-114138447D01*
X175857029Y-114157443D01*
X175863284Y-114178062D01*
X175866000Y-114205640D01*
X175866000Y-114714360D01*
X175863284Y-114741938D01*
X175857029Y-114762557D01*
X175846876Y-114781553D01*
X175833208Y-114798208D01*
X175816553Y-114811876D01*
X175797557Y-114822029D01*
X175776938Y-114828284D01*
X175749360Y-114831000D01*
X175290640Y-114831000D01*
X175263062Y-114828284D01*
X175242443Y-114822029D01*
X175223447Y-114811876D01*
X175206792Y-114798208D01*
X175193124Y-114781553D01*
X175182971Y-114762557D01*
X175176716Y-114741938D01*
X175174000Y-114714360D01*
X175174000Y-114205640D01*
X175176716Y-114178062D01*
X175182971Y-114157443D01*
X175193124Y-114138447D01*
X175206792Y-114121792D01*
X175223447Y-114108124D01*
X175242443Y-114097971D01*
X175263062Y-114091716D01*
X175290640Y-114089000D01*
X175749360Y-114089000D01*
X175776938Y-114091716D01*
X175776938Y-114091716D01*
G37*
G36*
X176746938Y-114091716D02*
G01*
X176767557Y-114097971D01*
X176786553Y-114108124D01*
X176803208Y-114121792D01*
X176816876Y-114138447D01*
X176827029Y-114157443D01*
X176833284Y-114178062D01*
X176836000Y-114205640D01*
X176836000Y-114714360D01*
X176833284Y-114741938D01*
X176827029Y-114762557D01*
X176816876Y-114781553D01*
X176803208Y-114798208D01*
X176786553Y-114811876D01*
X176767557Y-114822029D01*
X176746938Y-114828284D01*
X176719360Y-114831000D01*
X176260640Y-114831000D01*
X176233062Y-114828284D01*
X176212443Y-114822029D01*
X176193447Y-114811876D01*
X176176792Y-114798208D01*
X176163124Y-114781553D01*
X176152971Y-114762557D01*
X176146716Y-114741938D01*
X176144000Y-114714360D01*
X176144000Y-114205640D01*
X176146716Y-114178062D01*
X176152971Y-114157443D01*
X176163124Y-114138447D01*
X176176792Y-114121792D01*
X176193447Y-114108124D01*
X176212443Y-114097971D01*
X176233062Y-114091716D01*
X176260640Y-114089000D01*
X176719360Y-114089000D01*
X176746938Y-114091716D01*
X176746938Y-114091716D01*
G37*
G36*
X181331000Y-113531000D02*
G01*
X180029000Y-113531000D01*
X180029000Y-111229000D01*
X181331000Y-111229000D01*
X181331000Y-113531000D01*
X181331000Y-113531000D01*
G37*
G36*
X176771000Y-113531000D02*
G01*
X175469000Y-113531000D01*
X175469000Y-111229000D01*
X176771000Y-111229000D01*
X176771000Y-113531000D01*
X176771000Y-113531000D01*
G37*
G36*
X190738604Y-111448347D02*
G01*
X190775144Y-111459432D01*
X190808821Y-111477433D01*
X190838341Y-111501659D01*
X190862567Y-111531179D01*
X190880568Y-111564856D01*
X190891653Y-111601396D01*
X190896000Y-111645538D01*
X190896000Y-112594462D01*
X190891653Y-112638604D01*
X190880568Y-112675144D01*
X190862567Y-112708821D01*
X190838341Y-112738341D01*
X190808821Y-112762567D01*
X190775144Y-112780568D01*
X190738604Y-112791653D01*
X190694462Y-112796000D01*
X189245538Y-112796000D01*
X189201396Y-112791653D01*
X189164856Y-112780568D01*
X189131179Y-112762567D01*
X189101659Y-112738341D01*
X189077433Y-112708821D01*
X189059432Y-112675144D01*
X189048347Y-112638604D01*
X189044000Y-112594462D01*
X189044000Y-111645538D01*
X189048347Y-111601396D01*
X189059432Y-111564856D01*
X189077433Y-111531179D01*
X189101659Y-111501659D01*
X189131179Y-111477433D01*
X189164856Y-111459432D01*
X189201396Y-111448347D01*
X189245538Y-111444000D01*
X190694462Y-111444000D01*
X190738604Y-111448347D01*
X190738604Y-111448347D01*
G37*
G36*
X182761938Y-111971716D02*
G01*
X182782557Y-111977971D01*
X182801553Y-111988124D01*
X182818208Y-112001792D01*
X182831876Y-112018447D01*
X182842029Y-112037443D01*
X182848284Y-112058062D01*
X182851000Y-112085640D01*
X182851000Y-112544360D01*
X182848284Y-112571938D01*
X182842029Y-112592557D01*
X182831876Y-112611553D01*
X182818208Y-112628208D01*
X182801553Y-112641876D01*
X182782557Y-112652029D01*
X182761938Y-112658284D01*
X182734360Y-112661000D01*
X182225640Y-112661000D01*
X182198062Y-112658284D01*
X182177443Y-112652029D01*
X182158447Y-112641876D01*
X182141792Y-112628208D01*
X182128124Y-112611553D01*
X182117971Y-112592557D01*
X182111716Y-112571938D01*
X182109000Y-112544360D01*
X182109000Y-112085640D01*
X182111716Y-112058062D01*
X182117971Y-112037443D01*
X182128124Y-112018447D01*
X182141792Y-112001792D01*
X182158447Y-111988124D01*
X182177443Y-111977971D01*
X182198062Y-111971716D01*
X182225640Y-111969000D01*
X182734360Y-111969000D01*
X182761938Y-111971716D01*
X182761938Y-111971716D01*
G37*
G36*
X182761938Y-111001716D02*
G01*
X182782557Y-111007971D01*
X182801553Y-111018124D01*
X182818208Y-111031792D01*
X182831876Y-111048447D01*
X182842029Y-111067443D01*
X182848284Y-111088062D01*
X182851000Y-111115640D01*
X182851000Y-111574360D01*
X182848284Y-111601938D01*
X182842029Y-111622557D01*
X182831876Y-111641553D01*
X182818208Y-111658208D01*
X182801553Y-111671876D01*
X182782557Y-111682029D01*
X182761938Y-111688284D01*
X182734360Y-111691000D01*
X182225640Y-111691000D01*
X182198062Y-111688284D01*
X182177443Y-111682029D01*
X182158447Y-111671876D01*
X182141792Y-111658208D01*
X182128124Y-111641553D01*
X182117971Y-111622557D01*
X182111716Y-111601938D01*
X182109000Y-111574360D01*
X182109000Y-111115640D01*
X182111716Y-111088062D01*
X182117971Y-111067443D01*
X182128124Y-111048447D01*
X182141792Y-111031792D01*
X182158447Y-111018124D01*
X182177443Y-111007971D01*
X182198062Y-111001716D01*
X182225640Y-110999000D01*
X182734360Y-110999000D01*
X182761938Y-111001716D01*
X182761938Y-111001716D01*
G37*
G36*
X172786000Y-111533500D02*
G01*
X159984000Y-111533500D01*
X159984000Y-110161500D01*
X172786000Y-110161500D01*
X172786000Y-111533500D01*
X172786000Y-111533500D01*
G37*
G36*
X186141000Y-111501000D02*
G01*
X185239000Y-111501000D01*
X185239000Y-110499000D01*
X186141000Y-110499000D01*
X186141000Y-111501000D01*
X186141000Y-111501000D01*
G37*
G36*
X188041000Y-111501000D02*
G01*
X187139000Y-111501000D01*
X187139000Y-110499000D01*
X188041000Y-110499000D01*
X188041000Y-111501000D01*
X188041000Y-111501000D01*
G37*
G36*
X204551000Y-110831000D02*
G01*
X201649000Y-110831000D01*
X201649000Y-105429000D01*
X204551000Y-105429000D01*
X204551000Y-110831000D01*
X204551000Y-110831000D01*
G37*
G36*
X194451000Y-110831000D02*
G01*
X191549000Y-110831000D01*
X191549000Y-105429000D01*
X194451000Y-105429000D01*
X194451000Y-110831000D01*
X194451000Y-110831000D01*
G37*
G36*
X182741938Y-109906716D02*
G01*
X182762557Y-109912971D01*
X182781553Y-109923124D01*
X182798208Y-109936792D01*
X182811876Y-109953447D01*
X182822029Y-109972443D01*
X182828284Y-109993062D01*
X182831000Y-110020640D01*
X182831000Y-110479360D01*
X182828284Y-110506938D01*
X182822029Y-110527557D01*
X182811876Y-110546553D01*
X182798208Y-110563208D01*
X182781553Y-110576876D01*
X182762557Y-110587029D01*
X182741938Y-110593284D01*
X182714360Y-110596000D01*
X182205640Y-110596000D01*
X182178062Y-110593284D01*
X182157443Y-110587029D01*
X182138447Y-110576876D01*
X182121792Y-110563208D01*
X182108124Y-110546553D01*
X182097971Y-110527557D01*
X182091716Y-110506938D01*
X182089000Y-110479360D01*
X182089000Y-110020640D01*
X182091716Y-109993062D01*
X182097971Y-109972443D01*
X182108124Y-109953447D01*
X182121792Y-109936792D01*
X182138447Y-109923124D01*
X182157443Y-109912971D01*
X182178062Y-109906716D01*
X182205640Y-109904000D01*
X182714360Y-109904000D01*
X182741938Y-109906716D01*
X182741938Y-109906716D01*
G37*
G36*
X190738604Y-108648347D02*
G01*
X190775144Y-108659432D01*
X190808821Y-108677433D01*
X190838341Y-108701659D01*
X190862567Y-108731179D01*
X190880568Y-108764856D01*
X190891653Y-108801396D01*
X190896000Y-108845538D01*
X190896000Y-109794462D01*
X190891653Y-109838604D01*
X190880568Y-109875144D01*
X190862567Y-109908821D01*
X190838341Y-109938341D01*
X190808821Y-109962567D01*
X190775144Y-109980568D01*
X190738604Y-109991653D01*
X190694462Y-109996000D01*
X189245538Y-109996000D01*
X189201396Y-109991653D01*
X189164856Y-109980568D01*
X189131179Y-109962567D01*
X189101659Y-109938341D01*
X189077433Y-109908821D01*
X189059432Y-109875144D01*
X189048347Y-109838604D01*
X189044000Y-109794462D01*
X189044000Y-108845538D01*
X189048347Y-108801396D01*
X189059432Y-108764856D01*
X189077433Y-108731179D01*
X189101659Y-108701659D01*
X189131179Y-108677433D01*
X189164856Y-108659432D01*
X189201396Y-108648347D01*
X189245538Y-108644000D01*
X190694462Y-108644000D01*
X190738604Y-108648347D01*
X190738604Y-108648347D01*
G37*
G36*
X182741938Y-108936716D02*
G01*
X182762557Y-108942971D01*
X182781553Y-108953124D01*
X182798208Y-108966792D01*
X182811876Y-108983447D01*
X182822029Y-109002443D01*
X182828284Y-109023062D01*
X182831000Y-109050640D01*
X182831000Y-109509360D01*
X182828284Y-109536938D01*
X182822029Y-109557557D01*
X182811876Y-109576553D01*
X182798208Y-109593208D01*
X182781553Y-109606876D01*
X182762557Y-109617029D01*
X182741938Y-109623284D01*
X182714360Y-109626000D01*
X182205640Y-109626000D01*
X182178062Y-109623284D01*
X182157443Y-109617029D01*
X182138447Y-109606876D01*
X182121792Y-109593208D01*
X182108124Y-109576553D01*
X182097971Y-109557557D01*
X182091716Y-109536938D01*
X182089000Y-109509360D01*
X182089000Y-109050640D01*
X182091716Y-109023062D01*
X182097971Y-109002443D01*
X182108124Y-108983447D01*
X182121792Y-108966792D01*
X182138447Y-108953124D01*
X182157443Y-108942971D01*
X182178062Y-108936716D01*
X182205640Y-108934000D01*
X182714360Y-108934000D01*
X182741938Y-108936716D01*
X182741938Y-108936716D01*
G37*
G36*
X187091000Y-109501000D02*
G01*
X186189000Y-109501000D01*
X186189000Y-108499000D01*
X187091000Y-108499000D01*
X187091000Y-109501000D01*
X187091000Y-109501000D01*
G37*
G36*
X181351000Y-109331000D02*
G01*
X175449000Y-109331000D01*
X175449000Y-102829000D01*
X181351000Y-102829000D01*
X181351000Y-109331000D01*
X181351000Y-109331000D01*
G37*
G36*
X172786000Y-108803000D02*
G01*
X160619000Y-108803000D01*
X160619000Y-107431000D01*
X172786000Y-107431000D01*
X172786000Y-108803000D01*
X172786000Y-108803000D01*
G37*
G36*
X184636000Y-107506000D02*
G01*
X182984000Y-107506000D01*
X182984000Y-106804000D01*
X184636000Y-106804000D01*
X184636000Y-107506000D01*
X184636000Y-107506000D01*
G37*
G36*
X190036000Y-107506000D02*
G01*
X188384000Y-107506000D01*
X188384000Y-106804000D01*
X190036000Y-106804000D01*
X190036000Y-107506000D01*
X190036000Y-107506000D01*
G37*
G36*
X172786000Y-106644000D02*
G01*
X160619000Y-106644000D01*
X160619000Y-105272000D01*
X172786000Y-105272000D01*
X172786000Y-106644000D01*
X172786000Y-106644000D01*
G37*
G36*
X184636000Y-106236000D02*
G01*
X182984000Y-106236000D01*
X182984000Y-105534000D01*
X184636000Y-105534000D01*
X184636000Y-106236000D01*
X184636000Y-106236000D01*
G37*
G36*
X190036000Y-106236000D02*
G01*
X188384000Y-106236000D01*
X188384000Y-105534000D01*
X190036000Y-105534000D01*
X190036000Y-106236000D01*
X190036000Y-106236000D01*
G37*
G36*
X191439591Y-104023085D02*
G01*
X191473569Y-104033393D01*
X191504890Y-104050134D01*
X191532339Y-104072661D01*
X191554866Y-104100110D01*
X191571607Y-104131431D01*
X191581915Y-104165409D01*
X191586000Y-104206890D01*
X191586000Y-104808110D01*
X191581915Y-104849591D01*
X191571607Y-104883569D01*
X191554866Y-104914890D01*
X191532339Y-104942339D01*
X191504890Y-104964866D01*
X191473569Y-104981607D01*
X191439591Y-104991915D01*
X191398110Y-104996000D01*
X190721890Y-104996000D01*
X190680409Y-104991915D01*
X190646431Y-104981607D01*
X190615110Y-104964866D01*
X190587661Y-104942339D01*
X190565134Y-104914890D01*
X190548393Y-104883569D01*
X190538085Y-104849591D01*
X190534000Y-104808110D01*
X190534000Y-104206890D01*
X190538085Y-104165409D01*
X190548393Y-104131431D01*
X190565134Y-104100110D01*
X190587661Y-104072661D01*
X190615110Y-104050134D01*
X190646431Y-104033393D01*
X190680409Y-104023085D01*
X190721890Y-104019000D01*
X191398110Y-104019000D01*
X191439591Y-104023085D01*
X191439591Y-104023085D01*
G37*
G36*
X184636000Y-104966000D02*
G01*
X182984000Y-104966000D01*
X182984000Y-104264000D01*
X184636000Y-104264000D01*
X184636000Y-104966000D01*
X184636000Y-104966000D01*
G37*
G36*
X190036000Y-104966000D02*
G01*
X188384000Y-104966000D01*
X188384000Y-104264000D01*
X190036000Y-104264000D01*
X190036000Y-104966000D01*
X190036000Y-104966000D01*
G37*
G36*
X172786000Y-103913500D02*
G01*
X159984000Y-103913500D01*
X159984000Y-102541500D01*
X172786000Y-102541500D01*
X172786000Y-103913500D01*
X172786000Y-103913500D01*
G37*
G36*
X190036000Y-103696000D02*
G01*
X188384000Y-103696000D01*
X188384000Y-102994000D01*
X190036000Y-102994000D01*
X190036000Y-103696000D01*
X190036000Y-103696000D01*
G37*
G36*
X184636000Y-103696000D02*
G01*
X182984000Y-103696000D01*
X182984000Y-102994000D01*
X184636000Y-102994000D01*
X184636000Y-103696000D01*
X184636000Y-103696000D01*
G37*
G36*
X191439591Y-102448085D02*
G01*
X191473569Y-102458393D01*
X191504890Y-102475134D01*
X191532339Y-102497661D01*
X191554866Y-102525110D01*
X191571607Y-102556431D01*
X191581915Y-102590409D01*
X191586000Y-102631890D01*
X191586000Y-103233110D01*
X191581915Y-103274591D01*
X191571607Y-103308569D01*
X191554866Y-103339890D01*
X191532339Y-103367339D01*
X191504890Y-103389866D01*
X191473569Y-103406607D01*
X191439591Y-103416915D01*
X191398110Y-103421000D01*
X190721890Y-103421000D01*
X190680409Y-103416915D01*
X190646431Y-103406607D01*
X190615110Y-103389866D01*
X190587661Y-103367339D01*
X190565134Y-103339890D01*
X190548393Y-103308569D01*
X190538085Y-103274591D01*
X190534000Y-103233110D01*
X190534000Y-102631890D01*
X190538085Y-102590409D01*
X190548393Y-102556431D01*
X190565134Y-102525110D01*
X190587661Y-102497661D01*
X190615110Y-102475134D01*
X190646431Y-102458393D01*
X190680409Y-102448085D01*
X190721890Y-102444000D01*
X191398110Y-102444000D01*
X191439591Y-102448085D01*
X191439591Y-102448085D01*
G37*
M02*
