M48
; DRILL file {KiCad (5.1.0-0)} date Tuesday, 07 July 2020 at 18:13:49
; FORMAT={-:-/ absolute / inch / decimal}
; #@! TF.CreationDate,2020-07-07T18:13:49+01:00
; #@! TF.GenerationSoftware,Kicad,Pcbnew,(5.1.0-0)
; #@! TF.FileFunction,Plated,1,2,PTH
FMAT,2
INCH
T1C0.0157
T2C0.0315
T3C0.0394
%
G90
G05
T1
X6.8638Y-4.3114
X6.865Y-4.4024
X7.0236Y-4.1764
X7.187Y-4.1673
X7.189Y-4.6339
X7.2094Y-4.8004
X7.2331Y-4.4213
X7.3063Y-4.4122
X7.3077Y-4.6626
X7.3499Y-4.8092
X7.3972Y-4.7429
X7.398Y-4.8169
X7.4071Y-4.687
X7.4396Y-4.8465
X7.5083Y-4.2484
X7.8071Y-4.5508
X7.9224Y-4.6161
T2
X7.5654Y-4.7528
X7.6654Y-4.7528
T3
X6.8945Y-4.624
X6.8945Y-4.724
X6.8945Y-4.824
X6.9945Y-4.624
X6.9945Y-4.724
X6.9945Y-4.824
X7.865Y-4.6941
X7.965Y-4.6941
T0
M30
