G04 #@! TF.GenerationSoftware,KiCad,Pcbnew,(5.1.0-0)*
G04 #@! TF.CreationDate,2020-07-07T18:13:47+01:00*
G04 #@! TF.ProjectId,autoFan,6175746f-4661-46e2-9e6b-696361645f70,rev?*
G04 #@! TF.SameCoordinates,Original*
G04 #@! TF.FileFunction,Paste,Top*
G04 #@! TF.FilePolarity,Positive*
%FSLAX46Y46*%
G04 Gerber Fmt 4.6, Leading zero omitted, Abs format (unit mm)*
G04 Created by KiCad (PCBNEW (5.1.0-0)) date 2020-07-07 18:13:47*
%MOMM*%
%LPD*%
G04 APERTURE LIST*
%ADD10C,0.100000*%
%ADD11C,0.590000*%
%ADD12R,2.500000X1.800000*%
%ADD13R,2.800000X5.300000*%
%ADD14R,0.800000X0.900000*%
%ADD15C,1.250000*%
%ADD16R,1.200000X2.200000*%
%ADD17R,2.750000X3.050000*%
%ADD18R,1.600000X0.550000*%
%ADD19R,0.550000X1.600000*%
%ADD20R,1.550000X0.600000*%
%ADD21R,12.065000X1.270000*%
%ADD22R,12.700000X1.270000*%
%ADD23C,0.875000*%
G04 APERTURE END LIST*
D10*
G36*
X176651958Y-114140710D02*
G01*
X176666276Y-114142834D01*
X176680317Y-114146351D01*
X176693946Y-114151228D01*
X176707031Y-114157417D01*
X176719447Y-114164858D01*
X176731073Y-114173481D01*
X176741798Y-114183202D01*
X176751519Y-114193927D01*
X176760142Y-114205553D01*
X176767583Y-114217969D01*
X176773772Y-114231054D01*
X176778649Y-114244683D01*
X176782166Y-114258724D01*
X176784290Y-114273042D01*
X176785000Y-114287500D01*
X176785000Y-114632500D01*
X176784290Y-114646958D01*
X176782166Y-114661276D01*
X176778649Y-114675317D01*
X176773772Y-114688946D01*
X176767583Y-114702031D01*
X176760142Y-114714447D01*
X176751519Y-114726073D01*
X176741798Y-114736798D01*
X176731073Y-114746519D01*
X176719447Y-114755142D01*
X176707031Y-114762583D01*
X176693946Y-114768772D01*
X176680317Y-114773649D01*
X176666276Y-114777166D01*
X176651958Y-114779290D01*
X176637500Y-114780000D01*
X176342500Y-114780000D01*
X176328042Y-114779290D01*
X176313724Y-114777166D01*
X176299683Y-114773649D01*
X176286054Y-114768772D01*
X176272969Y-114762583D01*
X176260553Y-114755142D01*
X176248927Y-114746519D01*
X176238202Y-114736798D01*
X176228481Y-114726073D01*
X176219858Y-114714447D01*
X176212417Y-114702031D01*
X176206228Y-114688946D01*
X176201351Y-114675317D01*
X176197834Y-114661276D01*
X176195710Y-114646958D01*
X176195000Y-114632500D01*
X176195000Y-114287500D01*
X176195710Y-114273042D01*
X176197834Y-114258724D01*
X176201351Y-114244683D01*
X176206228Y-114231054D01*
X176212417Y-114217969D01*
X176219858Y-114205553D01*
X176228481Y-114193927D01*
X176238202Y-114183202D01*
X176248927Y-114173481D01*
X176260553Y-114164858D01*
X176272969Y-114157417D01*
X176286054Y-114151228D01*
X176299683Y-114146351D01*
X176313724Y-114142834D01*
X176328042Y-114140710D01*
X176342500Y-114140000D01*
X176637500Y-114140000D01*
X176651958Y-114140710D01*
X176651958Y-114140710D01*
G37*
D11*
X176490000Y-114460000D03*
D10*
G36*
X175681958Y-114140710D02*
G01*
X175696276Y-114142834D01*
X175710317Y-114146351D01*
X175723946Y-114151228D01*
X175737031Y-114157417D01*
X175749447Y-114164858D01*
X175761073Y-114173481D01*
X175771798Y-114183202D01*
X175781519Y-114193927D01*
X175790142Y-114205553D01*
X175797583Y-114217969D01*
X175803772Y-114231054D01*
X175808649Y-114244683D01*
X175812166Y-114258724D01*
X175814290Y-114273042D01*
X175815000Y-114287500D01*
X175815000Y-114632500D01*
X175814290Y-114646958D01*
X175812166Y-114661276D01*
X175808649Y-114675317D01*
X175803772Y-114688946D01*
X175797583Y-114702031D01*
X175790142Y-114714447D01*
X175781519Y-114726073D01*
X175771798Y-114736798D01*
X175761073Y-114746519D01*
X175749447Y-114755142D01*
X175737031Y-114762583D01*
X175723946Y-114768772D01*
X175710317Y-114773649D01*
X175696276Y-114777166D01*
X175681958Y-114779290D01*
X175667500Y-114780000D01*
X175372500Y-114780000D01*
X175358042Y-114779290D01*
X175343724Y-114777166D01*
X175329683Y-114773649D01*
X175316054Y-114768772D01*
X175302969Y-114762583D01*
X175290553Y-114755142D01*
X175278927Y-114746519D01*
X175268202Y-114736798D01*
X175258481Y-114726073D01*
X175249858Y-114714447D01*
X175242417Y-114702031D01*
X175236228Y-114688946D01*
X175231351Y-114675317D01*
X175227834Y-114661276D01*
X175225710Y-114646958D01*
X175225000Y-114632500D01*
X175225000Y-114287500D01*
X175225710Y-114273042D01*
X175227834Y-114258724D01*
X175231351Y-114244683D01*
X175236228Y-114231054D01*
X175242417Y-114217969D01*
X175249858Y-114205553D01*
X175258481Y-114193927D01*
X175268202Y-114183202D01*
X175278927Y-114173481D01*
X175290553Y-114164858D01*
X175302969Y-114157417D01*
X175316054Y-114151228D01*
X175329683Y-114146351D01*
X175343724Y-114142834D01*
X175358042Y-114140710D01*
X175372500Y-114140000D01*
X175667500Y-114140000D01*
X175681958Y-114140710D01*
X175681958Y-114140710D01*
G37*
D11*
X175520000Y-114460000D03*
D10*
G36*
X182646958Y-108985710D02*
G01*
X182661276Y-108987834D01*
X182675317Y-108991351D01*
X182688946Y-108996228D01*
X182702031Y-109002417D01*
X182714447Y-109009858D01*
X182726073Y-109018481D01*
X182736798Y-109028202D01*
X182746519Y-109038927D01*
X182755142Y-109050553D01*
X182762583Y-109062969D01*
X182768772Y-109076054D01*
X182773649Y-109089683D01*
X182777166Y-109103724D01*
X182779290Y-109118042D01*
X182780000Y-109132500D01*
X182780000Y-109427500D01*
X182779290Y-109441958D01*
X182777166Y-109456276D01*
X182773649Y-109470317D01*
X182768772Y-109483946D01*
X182762583Y-109497031D01*
X182755142Y-109509447D01*
X182746519Y-109521073D01*
X182736798Y-109531798D01*
X182726073Y-109541519D01*
X182714447Y-109550142D01*
X182702031Y-109557583D01*
X182688946Y-109563772D01*
X182675317Y-109568649D01*
X182661276Y-109572166D01*
X182646958Y-109574290D01*
X182632500Y-109575000D01*
X182287500Y-109575000D01*
X182273042Y-109574290D01*
X182258724Y-109572166D01*
X182244683Y-109568649D01*
X182231054Y-109563772D01*
X182217969Y-109557583D01*
X182205553Y-109550142D01*
X182193927Y-109541519D01*
X182183202Y-109531798D01*
X182173481Y-109521073D01*
X182164858Y-109509447D01*
X182157417Y-109497031D01*
X182151228Y-109483946D01*
X182146351Y-109470317D01*
X182142834Y-109456276D01*
X182140710Y-109441958D01*
X182140000Y-109427500D01*
X182140000Y-109132500D01*
X182140710Y-109118042D01*
X182142834Y-109103724D01*
X182146351Y-109089683D01*
X182151228Y-109076054D01*
X182157417Y-109062969D01*
X182164858Y-109050553D01*
X182173481Y-109038927D01*
X182183202Y-109028202D01*
X182193927Y-109018481D01*
X182205553Y-109009858D01*
X182217969Y-109002417D01*
X182231054Y-108996228D01*
X182244683Y-108991351D01*
X182258724Y-108987834D01*
X182273042Y-108985710D01*
X182287500Y-108985000D01*
X182632500Y-108985000D01*
X182646958Y-108985710D01*
X182646958Y-108985710D01*
G37*
D11*
X182460000Y-109280000D03*
D10*
G36*
X182646958Y-109955710D02*
G01*
X182661276Y-109957834D01*
X182675317Y-109961351D01*
X182688946Y-109966228D01*
X182702031Y-109972417D01*
X182714447Y-109979858D01*
X182726073Y-109988481D01*
X182736798Y-109998202D01*
X182746519Y-110008927D01*
X182755142Y-110020553D01*
X182762583Y-110032969D01*
X182768772Y-110046054D01*
X182773649Y-110059683D01*
X182777166Y-110073724D01*
X182779290Y-110088042D01*
X182780000Y-110102500D01*
X182780000Y-110397500D01*
X182779290Y-110411958D01*
X182777166Y-110426276D01*
X182773649Y-110440317D01*
X182768772Y-110453946D01*
X182762583Y-110467031D01*
X182755142Y-110479447D01*
X182746519Y-110491073D01*
X182736798Y-110501798D01*
X182726073Y-110511519D01*
X182714447Y-110520142D01*
X182702031Y-110527583D01*
X182688946Y-110533772D01*
X182675317Y-110538649D01*
X182661276Y-110542166D01*
X182646958Y-110544290D01*
X182632500Y-110545000D01*
X182287500Y-110545000D01*
X182273042Y-110544290D01*
X182258724Y-110542166D01*
X182244683Y-110538649D01*
X182231054Y-110533772D01*
X182217969Y-110527583D01*
X182205553Y-110520142D01*
X182193927Y-110511519D01*
X182183202Y-110501798D01*
X182173481Y-110491073D01*
X182164858Y-110479447D01*
X182157417Y-110467031D01*
X182151228Y-110453946D01*
X182146351Y-110440317D01*
X182142834Y-110426276D01*
X182140710Y-110411958D01*
X182140000Y-110397500D01*
X182140000Y-110102500D01*
X182140710Y-110088042D01*
X182142834Y-110073724D01*
X182146351Y-110059683D01*
X182151228Y-110046054D01*
X182157417Y-110032969D01*
X182164858Y-110020553D01*
X182173481Y-110008927D01*
X182183202Y-109998202D01*
X182193927Y-109988481D01*
X182205553Y-109979858D01*
X182217969Y-109972417D01*
X182231054Y-109966228D01*
X182244683Y-109961351D01*
X182258724Y-109957834D01*
X182273042Y-109955710D01*
X182287500Y-109955000D01*
X182632500Y-109955000D01*
X182646958Y-109955710D01*
X182646958Y-109955710D01*
G37*
D11*
X182460000Y-110250000D03*
D10*
G36*
X182666958Y-111050710D02*
G01*
X182681276Y-111052834D01*
X182695317Y-111056351D01*
X182708946Y-111061228D01*
X182722031Y-111067417D01*
X182734447Y-111074858D01*
X182746073Y-111083481D01*
X182756798Y-111093202D01*
X182766519Y-111103927D01*
X182775142Y-111115553D01*
X182782583Y-111127969D01*
X182788772Y-111141054D01*
X182793649Y-111154683D01*
X182797166Y-111168724D01*
X182799290Y-111183042D01*
X182800000Y-111197500D01*
X182800000Y-111492500D01*
X182799290Y-111506958D01*
X182797166Y-111521276D01*
X182793649Y-111535317D01*
X182788772Y-111548946D01*
X182782583Y-111562031D01*
X182775142Y-111574447D01*
X182766519Y-111586073D01*
X182756798Y-111596798D01*
X182746073Y-111606519D01*
X182734447Y-111615142D01*
X182722031Y-111622583D01*
X182708946Y-111628772D01*
X182695317Y-111633649D01*
X182681276Y-111637166D01*
X182666958Y-111639290D01*
X182652500Y-111640000D01*
X182307500Y-111640000D01*
X182293042Y-111639290D01*
X182278724Y-111637166D01*
X182264683Y-111633649D01*
X182251054Y-111628772D01*
X182237969Y-111622583D01*
X182225553Y-111615142D01*
X182213927Y-111606519D01*
X182203202Y-111596798D01*
X182193481Y-111586073D01*
X182184858Y-111574447D01*
X182177417Y-111562031D01*
X182171228Y-111548946D01*
X182166351Y-111535317D01*
X182162834Y-111521276D01*
X182160710Y-111506958D01*
X182160000Y-111492500D01*
X182160000Y-111197500D01*
X182160710Y-111183042D01*
X182162834Y-111168724D01*
X182166351Y-111154683D01*
X182171228Y-111141054D01*
X182177417Y-111127969D01*
X182184858Y-111115553D01*
X182193481Y-111103927D01*
X182203202Y-111093202D01*
X182213927Y-111083481D01*
X182225553Y-111074858D01*
X182237969Y-111067417D01*
X182251054Y-111061228D01*
X182264683Y-111056351D01*
X182278724Y-111052834D01*
X182293042Y-111050710D01*
X182307500Y-111050000D01*
X182652500Y-111050000D01*
X182666958Y-111050710D01*
X182666958Y-111050710D01*
G37*
D11*
X182480000Y-111345000D03*
D10*
G36*
X182666958Y-112020710D02*
G01*
X182681276Y-112022834D01*
X182695317Y-112026351D01*
X182708946Y-112031228D01*
X182722031Y-112037417D01*
X182734447Y-112044858D01*
X182746073Y-112053481D01*
X182756798Y-112063202D01*
X182766519Y-112073927D01*
X182775142Y-112085553D01*
X182782583Y-112097969D01*
X182788772Y-112111054D01*
X182793649Y-112124683D01*
X182797166Y-112138724D01*
X182799290Y-112153042D01*
X182800000Y-112167500D01*
X182800000Y-112462500D01*
X182799290Y-112476958D01*
X182797166Y-112491276D01*
X182793649Y-112505317D01*
X182788772Y-112518946D01*
X182782583Y-112532031D01*
X182775142Y-112544447D01*
X182766519Y-112556073D01*
X182756798Y-112566798D01*
X182746073Y-112576519D01*
X182734447Y-112585142D01*
X182722031Y-112592583D01*
X182708946Y-112598772D01*
X182695317Y-112603649D01*
X182681276Y-112607166D01*
X182666958Y-112609290D01*
X182652500Y-112610000D01*
X182307500Y-112610000D01*
X182293042Y-112609290D01*
X182278724Y-112607166D01*
X182264683Y-112603649D01*
X182251054Y-112598772D01*
X182237969Y-112592583D01*
X182225553Y-112585142D01*
X182213927Y-112576519D01*
X182203202Y-112566798D01*
X182193481Y-112556073D01*
X182184858Y-112544447D01*
X182177417Y-112532031D01*
X182171228Y-112518946D01*
X182166351Y-112505317D01*
X182162834Y-112491276D01*
X182160710Y-112476958D01*
X182160000Y-112462500D01*
X182160000Y-112167500D01*
X182160710Y-112153042D01*
X182162834Y-112138724D01*
X182166351Y-112124683D01*
X182171228Y-112111054D01*
X182177417Y-112097969D01*
X182184858Y-112085553D01*
X182193481Y-112073927D01*
X182203202Y-112063202D01*
X182213927Y-112053481D01*
X182225553Y-112044858D01*
X182237969Y-112037417D01*
X182251054Y-112031228D01*
X182264683Y-112026351D01*
X182278724Y-112022834D01*
X182293042Y-112020710D01*
X182307500Y-112020000D01*
X182652500Y-112020000D01*
X182666958Y-112020710D01*
X182666958Y-112020710D01*
G37*
D11*
X182480000Y-112315000D03*
D10*
G36*
X202496958Y-116300710D02*
G01*
X202511276Y-116302834D01*
X202525317Y-116306351D01*
X202538946Y-116311228D01*
X202552031Y-116317417D01*
X202564447Y-116324858D01*
X202576073Y-116333481D01*
X202586798Y-116343202D01*
X202596519Y-116353927D01*
X202605142Y-116365553D01*
X202612583Y-116377969D01*
X202618772Y-116391054D01*
X202623649Y-116404683D01*
X202627166Y-116418724D01*
X202629290Y-116433042D01*
X202630000Y-116447500D01*
X202630000Y-116742500D01*
X202629290Y-116756958D01*
X202627166Y-116771276D01*
X202623649Y-116785317D01*
X202618772Y-116798946D01*
X202612583Y-116812031D01*
X202605142Y-116824447D01*
X202596519Y-116836073D01*
X202586798Y-116846798D01*
X202576073Y-116856519D01*
X202564447Y-116865142D01*
X202552031Y-116872583D01*
X202538946Y-116878772D01*
X202525317Y-116883649D01*
X202511276Y-116887166D01*
X202496958Y-116889290D01*
X202482500Y-116890000D01*
X202137500Y-116890000D01*
X202123042Y-116889290D01*
X202108724Y-116887166D01*
X202094683Y-116883649D01*
X202081054Y-116878772D01*
X202067969Y-116872583D01*
X202055553Y-116865142D01*
X202043927Y-116856519D01*
X202033202Y-116846798D01*
X202023481Y-116836073D01*
X202014858Y-116824447D01*
X202007417Y-116812031D01*
X202001228Y-116798946D01*
X201996351Y-116785317D01*
X201992834Y-116771276D01*
X201990710Y-116756958D01*
X201990000Y-116742500D01*
X201990000Y-116447500D01*
X201990710Y-116433042D01*
X201992834Y-116418724D01*
X201996351Y-116404683D01*
X202001228Y-116391054D01*
X202007417Y-116377969D01*
X202014858Y-116365553D01*
X202023481Y-116353927D01*
X202033202Y-116343202D01*
X202043927Y-116333481D01*
X202055553Y-116324858D01*
X202067969Y-116317417D01*
X202081054Y-116311228D01*
X202094683Y-116306351D01*
X202108724Y-116302834D01*
X202123042Y-116300710D01*
X202137500Y-116300000D01*
X202482500Y-116300000D01*
X202496958Y-116300710D01*
X202496958Y-116300710D01*
G37*
D11*
X202310000Y-116595000D03*
D10*
G36*
X202496958Y-115330710D02*
G01*
X202511276Y-115332834D01*
X202525317Y-115336351D01*
X202538946Y-115341228D01*
X202552031Y-115347417D01*
X202564447Y-115354858D01*
X202576073Y-115363481D01*
X202586798Y-115373202D01*
X202596519Y-115383927D01*
X202605142Y-115395553D01*
X202612583Y-115407969D01*
X202618772Y-115421054D01*
X202623649Y-115434683D01*
X202627166Y-115448724D01*
X202629290Y-115463042D01*
X202630000Y-115477500D01*
X202630000Y-115772500D01*
X202629290Y-115786958D01*
X202627166Y-115801276D01*
X202623649Y-115815317D01*
X202618772Y-115828946D01*
X202612583Y-115842031D01*
X202605142Y-115854447D01*
X202596519Y-115866073D01*
X202586798Y-115876798D01*
X202576073Y-115886519D01*
X202564447Y-115895142D01*
X202552031Y-115902583D01*
X202538946Y-115908772D01*
X202525317Y-115913649D01*
X202511276Y-115917166D01*
X202496958Y-115919290D01*
X202482500Y-115920000D01*
X202137500Y-115920000D01*
X202123042Y-115919290D01*
X202108724Y-115917166D01*
X202094683Y-115913649D01*
X202081054Y-115908772D01*
X202067969Y-115902583D01*
X202055553Y-115895142D01*
X202043927Y-115886519D01*
X202033202Y-115876798D01*
X202023481Y-115866073D01*
X202014858Y-115854447D01*
X202007417Y-115842031D01*
X202001228Y-115828946D01*
X201996351Y-115815317D01*
X201992834Y-115801276D01*
X201990710Y-115786958D01*
X201990000Y-115772500D01*
X201990000Y-115477500D01*
X201990710Y-115463042D01*
X201992834Y-115448724D01*
X201996351Y-115434683D01*
X202001228Y-115421054D01*
X202007417Y-115407969D01*
X202014858Y-115395553D01*
X202023481Y-115383927D01*
X202033202Y-115373202D01*
X202043927Y-115363481D01*
X202055553Y-115354858D01*
X202067969Y-115347417D01*
X202081054Y-115341228D01*
X202094683Y-115336351D01*
X202108724Y-115332834D01*
X202123042Y-115330710D01*
X202137500Y-115330000D01*
X202482500Y-115330000D01*
X202496958Y-115330710D01*
X202496958Y-115330710D01*
G37*
D11*
X202310000Y-115625000D03*
D10*
G36*
X200416958Y-116340710D02*
G01*
X200431276Y-116342834D01*
X200445317Y-116346351D01*
X200458946Y-116351228D01*
X200472031Y-116357417D01*
X200484447Y-116364858D01*
X200496073Y-116373481D01*
X200506798Y-116383202D01*
X200516519Y-116393927D01*
X200525142Y-116405553D01*
X200532583Y-116417969D01*
X200538772Y-116431054D01*
X200543649Y-116444683D01*
X200547166Y-116458724D01*
X200549290Y-116473042D01*
X200550000Y-116487500D01*
X200550000Y-116782500D01*
X200549290Y-116796958D01*
X200547166Y-116811276D01*
X200543649Y-116825317D01*
X200538772Y-116838946D01*
X200532583Y-116852031D01*
X200525142Y-116864447D01*
X200516519Y-116876073D01*
X200506798Y-116886798D01*
X200496073Y-116896519D01*
X200484447Y-116905142D01*
X200472031Y-116912583D01*
X200458946Y-116918772D01*
X200445317Y-116923649D01*
X200431276Y-116927166D01*
X200416958Y-116929290D01*
X200402500Y-116930000D01*
X200057500Y-116930000D01*
X200043042Y-116929290D01*
X200028724Y-116927166D01*
X200014683Y-116923649D01*
X200001054Y-116918772D01*
X199987969Y-116912583D01*
X199975553Y-116905142D01*
X199963927Y-116896519D01*
X199953202Y-116886798D01*
X199943481Y-116876073D01*
X199934858Y-116864447D01*
X199927417Y-116852031D01*
X199921228Y-116838946D01*
X199916351Y-116825317D01*
X199912834Y-116811276D01*
X199910710Y-116796958D01*
X199910000Y-116782500D01*
X199910000Y-116487500D01*
X199910710Y-116473042D01*
X199912834Y-116458724D01*
X199916351Y-116444683D01*
X199921228Y-116431054D01*
X199927417Y-116417969D01*
X199934858Y-116405553D01*
X199943481Y-116393927D01*
X199953202Y-116383202D01*
X199963927Y-116373481D01*
X199975553Y-116364858D01*
X199987969Y-116357417D01*
X200001054Y-116351228D01*
X200014683Y-116346351D01*
X200028724Y-116342834D01*
X200043042Y-116340710D01*
X200057500Y-116340000D01*
X200402500Y-116340000D01*
X200416958Y-116340710D01*
X200416958Y-116340710D01*
G37*
D11*
X200230000Y-116635000D03*
D10*
G36*
X200416958Y-115370710D02*
G01*
X200431276Y-115372834D01*
X200445317Y-115376351D01*
X200458946Y-115381228D01*
X200472031Y-115387417D01*
X200484447Y-115394858D01*
X200496073Y-115403481D01*
X200506798Y-115413202D01*
X200516519Y-115423927D01*
X200525142Y-115435553D01*
X200532583Y-115447969D01*
X200538772Y-115461054D01*
X200543649Y-115474683D01*
X200547166Y-115488724D01*
X200549290Y-115503042D01*
X200550000Y-115517500D01*
X200550000Y-115812500D01*
X200549290Y-115826958D01*
X200547166Y-115841276D01*
X200543649Y-115855317D01*
X200538772Y-115868946D01*
X200532583Y-115882031D01*
X200525142Y-115894447D01*
X200516519Y-115906073D01*
X200506798Y-115916798D01*
X200496073Y-115926519D01*
X200484447Y-115935142D01*
X200472031Y-115942583D01*
X200458946Y-115948772D01*
X200445317Y-115953649D01*
X200431276Y-115957166D01*
X200416958Y-115959290D01*
X200402500Y-115960000D01*
X200057500Y-115960000D01*
X200043042Y-115959290D01*
X200028724Y-115957166D01*
X200014683Y-115953649D01*
X200001054Y-115948772D01*
X199987969Y-115942583D01*
X199975553Y-115935142D01*
X199963927Y-115926519D01*
X199953202Y-115916798D01*
X199943481Y-115906073D01*
X199934858Y-115894447D01*
X199927417Y-115882031D01*
X199921228Y-115868946D01*
X199916351Y-115855317D01*
X199912834Y-115841276D01*
X199910710Y-115826958D01*
X199910000Y-115812500D01*
X199910000Y-115517500D01*
X199910710Y-115503042D01*
X199912834Y-115488724D01*
X199916351Y-115474683D01*
X199921228Y-115461054D01*
X199927417Y-115447969D01*
X199934858Y-115435553D01*
X199943481Y-115423927D01*
X199953202Y-115413202D01*
X199963927Y-115403481D01*
X199975553Y-115394858D01*
X199987969Y-115387417D01*
X200001054Y-115381228D01*
X200014683Y-115376351D01*
X200028724Y-115372834D01*
X200043042Y-115370710D01*
X200057500Y-115370000D01*
X200402500Y-115370000D01*
X200416958Y-115370710D01*
X200416958Y-115370710D01*
G37*
D11*
X200230000Y-115665000D03*
D12*
X196290000Y-116410000D03*
X192290000Y-116410000D03*
D13*
X203100000Y-108130000D03*
X193000000Y-108130000D03*
D14*
X185690000Y-111000000D03*
X187590000Y-111000000D03*
X186640000Y-109000000D03*
D10*
G36*
X191391958Y-118450710D02*
G01*
X191406276Y-118452834D01*
X191420317Y-118456351D01*
X191433946Y-118461228D01*
X191447031Y-118467417D01*
X191459447Y-118474858D01*
X191471073Y-118483481D01*
X191481798Y-118493202D01*
X191491519Y-118503927D01*
X191500142Y-118515553D01*
X191507583Y-118527969D01*
X191513772Y-118541054D01*
X191518649Y-118554683D01*
X191522166Y-118568724D01*
X191524290Y-118583042D01*
X191525000Y-118597500D01*
X191525000Y-118942500D01*
X191524290Y-118956958D01*
X191522166Y-118971276D01*
X191518649Y-118985317D01*
X191513772Y-118998946D01*
X191507583Y-119012031D01*
X191500142Y-119024447D01*
X191491519Y-119036073D01*
X191481798Y-119046798D01*
X191471073Y-119056519D01*
X191459447Y-119065142D01*
X191447031Y-119072583D01*
X191433946Y-119078772D01*
X191420317Y-119083649D01*
X191406276Y-119087166D01*
X191391958Y-119089290D01*
X191377500Y-119090000D01*
X191082500Y-119090000D01*
X191068042Y-119089290D01*
X191053724Y-119087166D01*
X191039683Y-119083649D01*
X191026054Y-119078772D01*
X191012969Y-119072583D01*
X191000553Y-119065142D01*
X190988927Y-119056519D01*
X190978202Y-119046798D01*
X190968481Y-119036073D01*
X190959858Y-119024447D01*
X190952417Y-119012031D01*
X190946228Y-118998946D01*
X190941351Y-118985317D01*
X190937834Y-118971276D01*
X190935710Y-118956958D01*
X190935000Y-118942500D01*
X190935000Y-118597500D01*
X190935710Y-118583042D01*
X190937834Y-118568724D01*
X190941351Y-118554683D01*
X190946228Y-118541054D01*
X190952417Y-118527969D01*
X190959858Y-118515553D01*
X190968481Y-118503927D01*
X190978202Y-118493202D01*
X190988927Y-118483481D01*
X191000553Y-118474858D01*
X191012969Y-118467417D01*
X191026054Y-118461228D01*
X191039683Y-118456351D01*
X191053724Y-118452834D01*
X191068042Y-118450710D01*
X191082500Y-118450000D01*
X191377500Y-118450000D01*
X191391958Y-118450710D01*
X191391958Y-118450710D01*
G37*
D11*
X191230000Y-118770000D03*
D10*
G36*
X192361958Y-118450710D02*
G01*
X192376276Y-118452834D01*
X192390317Y-118456351D01*
X192403946Y-118461228D01*
X192417031Y-118467417D01*
X192429447Y-118474858D01*
X192441073Y-118483481D01*
X192451798Y-118493202D01*
X192461519Y-118503927D01*
X192470142Y-118515553D01*
X192477583Y-118527969D01*
X192483772Y-118541054D01*
X192488649Y-118554683D01*
X192492166Y-118568724D01*
X192494290Y-118583042D01*
X192495000Y-118597500D01*
X192495000Y-118942500D01*
X192494290Y-118956958D01*
X192492166Y-118971276D01*
X192488649Y-118985317D01*
X192483772Y-118998946D01*
X192477583Y-119012031D01*
X192470142Y-119024447D01*
X192461519Y-119036073D01*
X192451798Y-119046798D01*
X192441073Y-119056519D01*
X192429447Y-119065142D01*
X192417031Y-119072583D01*
X192403946Y-119078772D01*
X192390317Y-119083649D01*
X192376276Y-119087166D01*
X192361958Y-119089290D01*
X192347500Y-119090000D01*
X192052500Y-119090000D01*
X192038042Y-119089290D01*
X192023724Y-119087166D01*
X192009683Y-119083649D01*
X191996054Y-119078772D01*
X191982969Y-119072583D01*
X191970553Y-119065142D01*
X191958927Y-119056519D01*
X191948202Y-119046798D01*
X191938481Y-119036073D01*
X191929858Y-119024447D01*
X191922417Y-119012031D01*
X191916228Y-118998946D01*
X191911351Y-118985317D01*
X191907834Y-118971276D01*
X191905710Y-118956958D01*
X191905000Y-118942500D01*
X191905000Y-118597500D01*
X191905710Y-118583042D01*
X191907834Y-118568724D01*
X191911351Y-118554683D01*
X191916228Y-118541054D01*
X191922417Y-118527969D01*
X191929858Y-118515553D01*
X191938481Y-118503927D01*
X191948202Y-118493202D01*
X191958927Y-118483481D01*
X191970553Y-118474858D01*
X191982969Y-118467417D01*
X191996054Y-118461228D01*
X192009683Y-118456351D01*
X192023724Y-118452834D01*
X192038042Y-118450710D01*
X192052500Y-118450000D01*
X192347500Y-118450000D01*
X192361958Y-118450710D01*
X192361958Y-118450710D01*
G37*
D11*
X192200000Y-118770000D03*
D10*
G36*
X201476958Y-115340710D02*
G01*
X201491276Y-115342834D01*
X201505317Y-115346351D01*
X201518946Y-115351228D01*
X201532031Y-115357417D01*
X201544447Y-115364858D01*
X201556073Y-115373481D01*
X201566798Y-115383202D01*
X201576519Y-115393927D01*
X201585142Y-115405553D01*
X201592583Y-115417969D01*
X201598772Y-115431054D01*
X201603649Y-115444683D01*
X201607166Y-115458724D01*
X201609290Y-115473042D01*
X201610000Y-115487500D01*
X201610000Y-115782500D01*
X201609290Y-115796958D01*
X201607166Y-115811276D01*
X201603649Y-115825317D01*
X201598772Y-115838946D01*
X201592583Y-115852031D01*
X201585142Y-115864447D01*
X201576519Y-115876073D01*
X201566798Y-115886798D01*
X201556073Y-115896519D01*
X201544447Y-115905142D01*
X201532031Y-115912583D01*
X201518946Y-115918772D01*
X201505317Y-115923649D01*
X201491276Y-115927166D01*
X201476958Y-115929290D01*
X201462500Y-115930000D01*
X201117500Y-115930000D01*
X201103042Y-115929290D01*
X201088724Y-115927166D01*
X201074683Y-115923649D01*
X201061054Y-115918772D01*
X201047969Y-115912583D01*
X201035553Y-115905142D01*
X201023927Y-115896519D01*
X201013202Y-115886798D01*
X201003481Y-115876073D01*
X200994858Y-115864447D01*
X200987417Y-115852031D01*
X200981228Y-115838946D01*
X200976351Y-115825317D01*
X200972834Y-115811276D01*
X200970710Y-115796958D01*
X200970000Y-115782500D01*
X200970000Y-115487500D01*
X200970710Y-115473042D01*
X200972834Y-115458724D01*
X200976351Y-115444683D01*
X200981228Y-115431054D01*
X200987417Y-115417969D01*
X200994858Y-115405553D01*
X201003481Y-115393927D01*
X201013202Y-115383202D01*
X201023927Y-115373481D01*
X201035553Y-115364858D01*
X201047969Y-115357417D01*
X201061054Y-115351228D01*
X201074683Y-115346351D01*
X201088724Y-115342834D01*
X201103042Y-115340710D01*
X201117500Y-115340000D01*
X201462500Y-115340000D01*
X201476958Y-115340710D01*
X201476958Y-115340710D01*
G37*
D11*
X201290000Y-115635000D03*
D10*
G36*
X201476958Y-116310710D02*
G01*
X201491276Y-116312834D01*
X201505317Y-116316351D01*
X201518946Y-116321228D01*
X201532031Y-116327417D01*
X201544447Y-116334858D01*
X201556073Y-116343481D01*
X201566798Y-116353202D01*
X201576519Y-116363927D01*
X201585142Y-116375553D01*
X201592583Y-116387969D01*
X201598772Y-116401054D01*
X201603649Y-116414683D01*
X201607166Y-116428724D01*
X201609290Y-116443042D01*
X201610000Y-116457500D01*
X201610000Y-116752500D01*
X201609290Y-116766958D01*
X201607166Y-116781276D01*
X201603649Y-116795317D01*
X201598772Y-116808946D01*
X201592583Y-116822031D01*
X201585142Y-116834447D01*
X201576519Y-116846073D01*
X201566798Y-116856798D01*
X201556073Y-116866519D01*
X201544447Y-116875142D01*
X201532031Y-116882583D01*
X201518946Y-116888772D01*
X201505317Y-116893649D01*
X201491276Y-116897166D01*
X201476958Y-116899290D01*
X201462500Y-116900000D01*
X201117500Y-116900000D01*
X201103042Y-116899290D01*
X201088724Y-116897166D01*
X201074683Y-116893649D01*
X201061054Y-116888772D01*
X201047969Y-116882583D01*
X201035553Y-116875142D01*
X201023927Y-116866519D01*
X201013202Y-116856798D01*
X201003481Y-116846073D01*
X200994858Y-116834447D01*
X200987417Y-116822031D01*
X200981228Y-116808946D01*
X200976351Y-116795317D01*
X200972834Y-116781276D01*
X200970710Y-116766958D01*
X200970000Y-116752500D01*
X200970000Y-116457500D01*
X200970710Y-116443042D01*
X200972834Y-116428724D01*
X200976351Y-116414683D01*
X200981228Y-116401054D01*
X200987417Y-116387969D01*
X200994858Y-116375553D01*
X201003481Y-116363927D01*
X201013202Y-116353202D01*
X201023927Y-116343481D01*
X201035553Y-116334858D01*
X201047969Y-116327417D01*
X201061054Y-116321228D01*
X201074683Y-116316351D01*
X201088724Y-116312834D01*
X201103042Y-116310710D01*
X201117500Y-116310000D01*
X201462500Y-116310000D01*
X201476958Y-116310710D01*
X201476958Y-116310710D01*
G37*
D11*
X201290000Y-116605000D03*
D10*
G36*
X190619504Y-111496204D02*
G01*
X190643773Y-111499804D01*
X190667571Y-111505765D01*
X190690671Y-111514030D01*
X190712849Y-111524520D01*
X190733893Y-111537133D01*
X190753598Y-111551747D01*
X190771777Y-111568223D01*
X190788253Y-111586402D01*
X190802867Y-111606107D01*
X190815480Y-111627151D01*
X190825970Y-111649329D01*
X190834235Y-111672429D01*
X190840196Y-111696227D01*
X190843796Y-111720496D01*
X190845000Y-111745000D01*
X190845000Y-112495000D01*
X190843796Y-112519504D01*
X190840196Y-112543773D01*
X190834235Y-112567571D01*
X190825970Y-112590671D01*
X190815480Y-112612849D01*
X190802867Y-112633893D01*
X190788253Y-112653598D01*
X190771777Y-112671777D01*
X190753598Y-112688253D01*
X190733893Y-112702867D01*
X190712849Y-112715480D01*
X190690671Y-112725970D01*
X190667571Y-112734235D01*
X190643773Y-112740196D01*
X190619504Y-112743796D01*
X190595000Y-112745000D01*
X189345000Y-112745000D01*
X189320496Y-112743796D01*
X189296227Y-112740196D01*
X189272429Y-112734235D01*
X189249329Y-112725970D01*
X189227151Y-112715480D01*
X189206107Y-112702867D01*
X189186402Y-112688253D01*
X189168223Y-112671777D01*
X189151747Y-112653598D01*
X189137133Y-112633893D01*
X189124520Y-112612849D01*
X189114030Y-112590671D01*
X189105765Y-112567571D01*
X189099804Y-112543773D01*
X189096204Y-112519504D01*
X189095000Y-112495000D01*
X189095000Y-111745000D01*
X189096204Y-111720496D01*
X189099804Y-111696227D01*
X189105765Y-111672429D01*
X189114030Y-111649329D01*
X189124520Y-111627151D01*
X189137133Y-111606107D01*
X189151747Y-111586402D01*
X189168223Y-111568223D01*
X189186402Y-111551747D01*
X189206107Y-111537133D01*
X189227151Y-111524520D01*
X189249329Y-111514030D01*
X189272429Y-111505765D01*
X189296227Y-111499804D01*
X189320496Y-111496204D01*
X189345000Y-111495000D01*
X190595000Y-111495000D01*
X190619504Y-111496204D01*
X190619504Y-111496204D01*
G37*
D15*
X189970000Y-112120000D03*
D10*
G36*
X190619504Y-108696204D02*
G01*
X190643773Y-108699804D01*
X190667571Y-108705765D01*
X190690671Y-108714030D01*
X190712849Y-108724520D01*
X190733893Y-108737133D01*
X190753598Y-108751747D01*
X190771777Y-108768223D01*
X190788253Y-108786402D01*
X190802867Y-108806107D01*
X190815480Y-108827151D01*
X190825970Y-108849329D01*
X190834235Y-108872429D01*
X190840196Y-108896227D01*
X190843796Y-108920496D01*
X190845000Y-108945000D01*
X190845000Y-109695000D01*
X190843796Y-109719504D01*
X190840196Y-109743773D01*
X190834235Y-109767571D01*
X190825970Y-109790671D01*
X190815480Y-109812849D01*
X190802867Y-109833893D01*
X190788253Y-109853598D01*
X190771777Y-109871777D01*
X190753598Y-109888253D01*
X190733893Y-109902867D01*
X190712849Y-109915480D01*
X190690671Y-109925970D01*
X190667571Y-109934235D01*
X190643773Y-109940196D01*
X190619504Y-109943796D01*
X190595000Y-109945000D01*
X189345000Y-109945000D01*
X189320496Y-109943796D01*
X189296227Y-109940196D01*
X189272429Y-109934235D01*
X189249329Y-109925970D01*
X189227151Y-109915480D01*
X189206107Y-109902867D01*
X189186402Y-109888253D01*
X189168223Y-109871777D01*
X189151747Y-109853598D01*
X189137133Y-109833893D01*
X189124520Y-109812849D01*
X189114030Y-109790671D01*
X189105765Y-109767571D01*
X189099804Y-109743773D01*
X189096204Y-109719504D01*
X189095000Y-109695000D01*
X189095000Y-108945000D01*
X189096204Y-108920496D01*
X189099804Y-108896227D01*
X189105765Y-108872429D01*
X189114030Y-108849329D01*
X189124520Y-108827151D01*
X189137133Y-108806107D01*
X189151747Y-108786402D01*
X189168223Y-108768223D01*
X189186402Y-108751747D01*
X189206107Y-108737133D01*
X189227151Y-108724520D01*
X189249329Y-108714030D01*
X189272429Y-108705765D01*
X189296227Y-108699804D01*
X189320496Y-108696204D01*
X189345000Y-108695000D01*
X190595000Y-108695000D01*
X190619504Y-108696204D01*
X190619504Y-108696204D01*
G37*
D15*
X189970000Y-109320000D03*
D16*
X176120000Y-112380000D03*
X180680000Y-112380000D03*
D17*
X179925000Y-104405000D03*
X176875000Y-107755000D03*
X176875000Y-104405000D03*
X179925000Y-107755000D03*
D18*
X181040000Y-116610000D03*
X181040000Y-117410000D03*
X181040000Y-118210000D03*
X181040000Y-119010000D03*
X181040000Y-119810000D03*
X181040000Y-120610000D03*
X181040000Y-121410000D03*
X181040000Y-122210000D03*
D19*
X182490000Y-123660000D03*
X183290000Y-123660000D03*
X184090000Y-123660000D03*
X184890000Y-123660000D03*
X185690000Y-123660000D03*
X186490000Y-123660000D03*
X187290000Y-123660000D03*
X188090000Y-123660000D03*
D18*
X189540000Y-122210000D03*
X189540000Y-121410000D03*
X189540000Y-120610000D03*
X189540000Y-119810000D03*
X189540000Y-119010000D03*
X189540000Y-118210000D03*
X189540000Y-117410000D03*
X189540000Y-116610000D03*
D19*
X188090000Y-115160000D03*
X187290000Y-115160000D03*
X186490000Y-115160000D03*
X185690000Y-115160000D03*
X184890000Y-115160000D03*
X184090000Y-115160000D03*
X183290000Y-115160000D03*
X182490000Y-115160000D03*
D20*
X183810000Y-103345000D03*
X183810000Y-104615000D03*
X183810000Y-105885000D03*
X183810000Y-107155000D03*
X189210000Y-107155000D03*
X189210000Y-105885000D03*
X189210000Y-104615000D03*
X189210000Y-103345000D03*
D21*
X166702500Y-108117000D03*
D22*
X166385000Y-110847500D03*
X166385000Y-103227500D03*
D21*
X166702500Y-105958000D03*
D10*
G36*
X199237691Y-114718553D02*
G01*
X199258926Y-114721703D01*
X199279750Y-114726919D01*
X199299962Y-114734151D01*
X199319368Y-114743330D01*
X199337781Y-114754366D01*
X199355024Y-114767154D01*
X199370930Y-114781570D01*
X199385346Y-114797476D01*
X199398134Y-114814719D01*
X199409170Y-114833132D01*
X199418349Y-114852538D01*
X199425581Y-114872750D01*
X199430797Y-114893574D01*
X199433947Y-114914809D01*
X199435000Y-114936250D01*
X199435000Y-115373750D01*
X199433947Y-115395191D01*
X199430797Y-115416426D01*
X199425581Y-115437250D01*
X199418349Y-115457462D01*
X199409170Y-115476868D01*
X199398134Y-115495281D01*
X199385346Y-115512524D01*
X199370930Y-115528430D01*
X199355024Y-115542846D01*
X199337781Y-115555634D01*
X199319368Y-115566670D01*
X199299962Y-115575849D01*
X199279750Y-115583081D01*
X199258926Y-115588297D01*
X199237691Y-115591447D01*
X199216250Y-115592500D01*
X198703750Y-115592500D01*
X198682309Y-115591447D01*
X198661074Y-115588297D01*
X198640250Y-115583081D01*
X198620038Y-115575849D01*
X198600632Y-115566670D01*
X198582219Y-115555634D01*
X198564976Y-115542846D01*
X198549070Y-115528430D01*
X198534654Y-115512524D01*
X198521866Y-115495281D01*
X198510830Y-115476868D01*
X198501651Y-115457462D01*
X198494419Y-115437250D01*
X198489203Y-115416426D01*
X198486053Y-115395191D01*
X198485000Y-115373750D01*
X198485000Y-114936250D01*
X198486053Y-114914809D01*
X198489203Y-114893574D01*
X198494419Y-114872750D01*
X198501651Y-114852538D01*
X198510830Y-114833132D01*
X198521866Y-114814719D01*
X198534654Y-114797476D01*
X198549070Y-114781570D01*
X198564976Y-114767154D01*
X198582219Y-114754366D01*
X198600632Y-114743330D01*
X198620038Y-114734151D01*
X198640250Y-114726919D01*
X198661074Y-114721703D01*
X198682309Y-114718553D01*
X198703750Y-114717500D01*
X199216250Y-114717500D01*
X199237691Y-114718553D01*
X199237691Y-114718553D01*
G37*
D23*
X198960000Y-115155000D03*
D10*
G36*
X199237691Y-116293553D02*
G01*
X199258926Y-116296703D01*
X199279750Y-116301919D01*
X199299962Y-116309151D01*
X199319368Y-116318330D01*
X199337781Y-116329366D01*
X199355024Y-116342154D01*
X199370930Y-116356570D01*
X199385346Y-116372476D01*
X199398134Y-116389719D01*
X199409170Y-116408132D01*
X199418349Y-116427538D01*
X199425581Y-116447750D01*
X199430797Y-116468574D01*
X199433947Y-116489809D01*
X199435000Y-116511250D01*
X199435000Y-116948750D01*
X199433947Y-116970191D01*
X199430797Y-116991426D01*
X199425581Y-117012250D01*
X199418349Y-117032462D01*
X199409170Y-117051868D01*
X199398134Y-117070281D01*
X199385346Y-117087524D01*
X199370930Y-117103430D01*
X199355024Y-117117846D01*
X199337781Y-117130634D01*
X199319368Y-117141670D01*
X199299962Y-117150849D01*
X199279750Y-117158081D01*
X199258926Y-117163297D01*
X199237691Y-117166447D01*
X199216250Y-117167500D01*
X198703750Y-117167500D01*
X198682309Y-117166447D01*
X198661074Y-117163297D01*
X198640250Y-117158081D01*
X198620038Y-117150849D01*
X198600632Y-117141670D01*
X198582219Y-117130634D01*
X198564976Y-117117846D01*
X198549070Y-117103430D01*
X198534654Y-117087524D01*
X198521866Y-117070281D01*
X198510830Y-117051868D01*
X198501651Y-117032462D01*
X198494419Y-117012250D01*
X198489203Y-116991426D01*
X198486053Y-116970191D01*
X198485000Y-116948750D01*
X198485000Y-116511250D01*
X198486053Y-116489809D01*
X198489203Y-116468574D01*
X198494419Y-116447750D01*
X198501651Y-116427538D01*
X198510830Y-116408132D01*
X198521866Y-116389719D01*
X198534654Y-116372476D01*
X198549070Y-116356570D01*
X198564976Y-116342154D01*
X198582219Y-116329366D01*
X198600632Y-116318330D01*
X198620038Y-116309151D01*
X198640250Y-116301919D01*
X198661074Y-116296703D01*
X198682309Y-116293553D01*
X198703750Y-116292500D01*
X199216250Y-116292500D01*
X199237691Y-116293553D01*
X199237691Y-116293553D01*
G37*
D23*
X198960000Y-116730000D03*
D10*
G36*
X191337691Y-104071053D02*
G01*
X191358926Y-104074203D01*
X191379750Y-104079419D01*
X191399962Y-104086651D01*
X191419368Y-104095830D01*
X191437781Y-104106866D01*
X191455024Y-104119654D01*
X191470930Y-104134070D01*
X191485346Y-104149976D01*
X191498134Y-104167219D01*
X191509170Y-104185632D01*
X191518349Y-104205038D01*
X191525581Y-104225250D01*
X191530797Y-104246074D01*
X191533947Y-104267309D01*
X191535000Y-104288750D01*
X191535000Y-104726250D01*
X191533947Y-104747691D01*
X191530797Y-104768926D01*
X191525581Y-104789750D01*
X191518349Y-104809962D01*
X191509170Y-104829368D01*
X191498134Y-104847781D01*
X191485346Y-104865024D01*
X191470930Y-104880930D01*
X191455024Y-104895346D01*
X191437781Y-104908134D01*
X191419368Y-104919170D01*
X191399962Y-104928349D01*
X191379750Y-104935581D01*
X191358926Y-104940797D01*
X191337691Y-104943947D01*
X191316250Y-104945000D01*
X190803750Y-104945000D01*
X190782309Y-104943947D01*
X190761074Y-104940797D01*
X190740250Y-104935581D01*
X190720038Y-104928349D01*
X190700632Y-104919170D01*
X190682219Y-104908134D01*
X190664976Y-104895346D01*
X190649070Y-104880930D01*
X190634654Y-104865024D01*
X190621866Y-104847781D01*
X190610830Y-104829368D01*
X190601651Y-104809962D01*
X190594419Y-104789750D01*
X190589203Y-104768926D01*
X190586053Y-104747691D01*
X190585000Y-104726250D01*
X190585000Y-104288750D01*
X190586053Y-104267309D01*
X190589203Y-104246074D01*
X190594419Y-104225250D01*
X190601651Y-104205038D01*
X190610830Y-104185632D01*
X190621866Y-104167219D01*
X190634654Y-104149976D01*
X190649070Y-104134070D01*
X190664976Y-104119654D01*
X190682219Y-104106866D01*
X190700632Y-104095830D01*
X190720038Y-104086651D01*
X190740250Y-104079419D01*
X190761074Y-104074203D01*
X190782309Y-104071053D01*
X190803750Y-104070000D01*
X191316250Y-104070000D01*
X191337691Y-104071053D01*
X191337691Y-104071053D01*
G37*
D23*
X191060000Y-104507500D03*
D10*
G36*
X191337691Y-102496053D02*
G01*
X191358926Y-102499203D01*
X191379750Y-102504419D01*
X191399962Y-102511651D01*
X191419368Y-102520830D01*
X191437781Y-102531866D01*
X191455024Y-102544654D01*
X191470930Y-102559070D01*
X191485346Y-102574976D01*
X191498134Y-102592219D01*
X191509170Y-102610632D01*
X191518349Y-102630038D01*
X191525581Y-102650250D01*
X191530797Y-102671074D01*
X191533947Y-102692309D01*
X191535000Y-102713750D01*
X191535000Y-103151250D01*
X191533947Y-103172691D01*
X191530797Y-103193926D01*
X191525581Y-103214750D01*
X191518349Y-103234962D01*
X191509170Y-103254368D01*
X191498134Y-103272781D01*
X191485346Y-103290024D01*
X191470930Y-103305930D01*
X191455024Y-103320346D01*
X191437781Y-103333134D01*
X191419368Y-103344170D01*
X191399962Y-103353349D01*
X191379750Y-103360581D01*
X191358926Y-103365797D01*
X191337691Y-103368947D01*
X191316250Y-103370000D01*
X190803750Y-103370000D01*
X190782309Y-103368947D01*
X190761074Y-103365797D01*
X190740250Y-103360581D01*
X190720038Y-103353349D01*
X190700632Y-103344170D01*
X190682219Y-103333134D01*
X190664976Y-103320346D01*
X190649070Y-103305930D01*
X190634654Y-103290024D01*
X190621866Y-103272781D01*
X190610830Y-103254368D01*
X190601651Y-103234962D01*
X190594419Y-103214750D01*
X190589203Y-103193926D01*
X190586053Y-103172691D01*
X190585000Y-103151250D01*
X190585000Y-102713750D01*
X190586053Y-102692309D01*
X190589203Y-102671074D01*
X190594419Y-102650250D01*
X190601651Y-102630038D01*
X190610830Y-102610632D01*
X190621866Y-102592219D01*
X190634654Y-102574976D01*
X190649070Y-102559070D01*
X190664976Y-102544654D01*
X190682219Y-102531866D01*
X190700632Y-102520830D01*
X190720038Y-102511651D01*
X190740250Y-102504419D01*
X190761074Y-102499203D01*
X190782309Y-102496053D01*
X190803750Y-102495000D01*
X191316250Y-102495000D01*
X191337691Y-102496053D01*
X191337691Y-102496053D01*
G37*
D23*
X191060000Y-102932500D03*
M02*
