G04 #@! TF.GenerationSoftware,KiCad,Pcbnew,(5.1.0-0)*
G04 #@! TF.CreationDate,2020-07-07T18:13:47+01:00*
G04 #@! TF.ProjectId,autoFan,6175746f-4661-46e2-9e6b-696361645f70,rev?*
G04 #@! TF.SameCoordinates,Original*
G04 #@! TF.FileFunction,Legend,Top*
G04 #@! TF.FilePolarity,Positive*
%FSLAX46Y46*%
G04 Gerber Fmt 4.6, Leading zero omitted, Abs format (unit mm)*
G04 Created by KiCad (PCBNEW (5.1.0-0)) date 2020-07-07 18:13:47*
%MOMM*%
%LPD*%
G04 APERTURE LIST*
%ADD10C,0.120000*%
%ADD11C,0.150000*%
G04 APERTURE END LIST*
D10*
X197690000Y-118060000D02*
X197690000Y-114760000D01*
X197690000Y-114760000D02*
X192290000Y-114760000D01*
X197690000Y-118060000D02*
X192290000Y-118060000D01*
X201040000Y-120560000D02*
X201040000Y-117900000D01*
X201040000Y-120560000D02*
X203640000Y-120560000D01*
X203640000Y-120560000D02*
X203640000Y-117900000D01*
X201040000Y-117900000D02*
X203640000Y-117900000D01*
X198440000Y-117900000D02*
X199770000Y-117900000D01*
X198440000Y-119230000D02*
X198440000Y-117900000D01*
X173790000Y-123860000D02*
X178990000Y-123860000D01*
X173790000Y-118720000D02*
X173790000Y-123860000D01*
X178990000Y-116120000D02*
X178990000Y-123860000D01*
X173790000Y-118720000D02*
X176390000Y-118720000D01*
X176390000Y-118720000D02*
X176390000Y-116120000D01*
X176390000Y-116120000D02*
X178990000Y-116120000D01*
X173790000Y-117450000D02*
X173790000Y-116120000D01*
X173790000Y-116120000D02*
X175120000Y-116120000D01*
X192300000Y-101980000D02*
X203800000Y-101980000D01*
X191900000Y-102380000D02*
X191900000Y-105130000D01*
X203800000Y-114280000D02*
X192300000Y-114280000D01*
X204200000Y-102380000D02*
X204200000Y-105130000D01*
X191900000Y-111130000D02*
X191900000Y-113880000D01*
X204200000Y-111130000D02*
X204200000Y-113880000D01*
X191900000Y-102380000D02*
G75*
G02X192300000Y-101980000I400000J0D01*
G01*
X192300000Y-114280000D02*
G75*
G02X191900000Y-113880000I0J400000D01*
G01*
X204200000Y-113880000D02*
G75*
G02X203800000Y-114280000I-400000J0D01*
G01*
X203800000Y-101980000D02*
G75*
G02X204200000Y-102380000I0J-400000D01*
G01*
X188220000Y-109240000D02*
X187290000Y-109240000D01*
X185060000Y-109240000D02*
X185990000Y-109240000D01*
X185060000Y-109240000D02*
X185060000Y-111400000D01*
X188220000Y-109240000D02*
X188220000Y-110700000D01*
X189060000Y-111322064D02*
X189060000Y-110117936D01*
X190880000Y-111322064D02*
X190880000Y-110117936D01*
X193380000Y-120720000D02*
G75*
G03X193380000Y-120720000I-1220000J0D01*
G01*
X193380000Y-120720000D02*
X193600000Y-120720000D01*
X174950000Y-109150000D02*
X174950000Y-110650000D01*
X174950000Y-110650000D02*
X175220000Y-110650000D01*
X175220000Y-110650000D02*
X175220000Y-113480000D01*
X181850000Y-109150000D02*
X181850000Y-110650000D01*
X181850000Y-110650000D02*
X181580000Y-110650000D01*
X181580000Y-110650000D02*
X181580000Y-111750000D01*
D11*
X181665000Y-115785000D02*
X181665000Y-116010000D01*
X188915000Y-115785000D02*
X188915000Y-116110000D01*
X188915000Y-123035000D02*
X188915000Y-122710000D01*
X181665000Y-123035000D02*
X181665000Y-122710000D01*
X181665000Y-115785000D02*
X181990000Y-115785000D01*
X181665000Y-123035000D02*
X181990000Y-123035000D01*
X188915000Y-123035000D02*
X188590000Y-123035000D01*
X188915000Y-115785000D02*
X188590000Y-115785000D01*
X181665000Y-116010000D02*
X180240000Y-116010000D01*
X184435000Y-102675000D02*
X184435000Y-102725000D01*
X188585000Y-102675000D02*
X188585000Y-102820000D01*
X188585000Y-107825000D02*
X188585000Y-107680000D01*
X184435000Y-107825000D02*
X184435000Y-107680000D01*
X184435000Y-102675000D02*
X188585000Y-102675000D01*
X184435000Y-107825000D02*
X188585000Y-107825000D01*
X184435000Y-102725000D02*
X183035000Y-102725000D01*
D10*
X199470000Y-116105279D02*
X199470000Y-115779721D01*
X198450000Y-116105279D02*
X198450000Y-115779721D01*
X190550000Y-103882779D02*
X190550000Y-103557221D01*
X191570000Y-103882779D02*
X191570000Y-103557221D01*
D11*
X173833333Y-114877142D02*
X173785714Y-114924761D01*
X173642857Y-114972380D01*
X173547619Y-114972380D01*
X173404761Y-114924761D01*
X173309523Y-114829523D01*
X173261904Y-114734285D01*
X173214285Y-114543809D01*
X173214285Y-114400952D01*
X173261904Y-114210476D01*
X173309523Y-114115238D01*
X173404761Y-114020000D01*
X173547619Y-113972380D01*
X173642857Y-113972380D01*
X173785714Y-114020000D01*
X173833333Y-114067619D01*
X174785714Y-114972380D02*
X174214285Y-114972380D01*
X174500000Y-114972380D02*
X174500000Y-113972380D01*
X174404761Y-114115238D01*
X174309523Y-114210476D01*
X174214285Y-114258095D01*
X183987142Y-109931666D02*
X184034761Y-109979285D01*
X184082380Y-110122142D01*
X184082380Y-110217380D01*
X184034761Y-110360238D01*
X183939523Y-110455476D01*
X183844285Y-110503095D01*
X183653809Y-110550714D01*
X183510952Y-110550714D01*
X183320476Y-110503095D01*
X183225238Y-110455476D01*
X183130000Y-110360238D01*
X183082380Y-110217380D01*
X183082380Y-110122142D01*
X183130000Y-109979285D01*
X183177619Y-109931666D01*
X183177619Y-109550714D02*
X183130000Y-109503095D01*
X183082380Y-109407857D01*
X183082380Y-109169761D01*
X183130000Y-109074523D01*
X183177619Y-109026904D01*
X183272857Y-108979285D01*
X183368095Y-108979285D01*
X183510952Y-109026904D01*
X184082380Y-109598333D01*
X184082380Y-108979285D01*
X184357142Y-112166666D02*
X184404761Y-112214285D01*
X184452380Y-112357142D01*
X184452380Y-112452380D01*
X184404761Y-112595238D01*
X184309523Y-112690476D01*
X184214285Y-112738095D01*
X184023809Y-112785714D01*
X183880952Y-112785714D01*
X183690476Y-112738095D01*
X183595238Y-112690476D01*
X183500000Y-112595238D01*
X183452380Y-112452380D01*
X183452380Y-112357142D01*
X183500000Y-112214285D01*
X183547619Y-112166666D01*
X183452380Y-111833333D02*
X183452380Y-111214285D01*
X183833333Y-111547619D01*
X183833333Y-111404761D01*
X183880952Y-111309523D01*
X183928571Y-111261904D01*
X184023809Y-111214285D01*
X184261904Y-111214285D01*
X184357142Y-111261904D01*
X184404761Y-111309523D01*
X184452380Y-111404761D01*
X184452380Y-111690476D01*
X184404761Y-111785714D01*
X184357142Y-111833333D01*
X203907142Y-116286666D02*
X203954761Y-116334285D01*
X204002380Y-116477142D01*
X204002380Y-116572380D01*
X203954761Y-116715238D01*
X203859523Y-116810476D01*
X203764285Y-116858095D01*
X203573809Y-116905714D01*
X203430952Y-116905714D01*
X203240476Y-116858095D01*
X203145238Y-116810476D01*
X203050000Y-116715238D01*
X203002380Y-116572380D01*
X203002380Y-116477142D01*
X203050000Y-116334285D01*
X203097619Y-116286666D01*
X203335714Y-115429523D02*
X204002380Y-115429523D01*
X202954761Y-115667619D02*
X203669047Y-115905714D01*
X203669047Y-115286666D01*
X199533333Y-115117142D02*
X199485714Y-115164761D01*
X199342857Y-115212380D01*
X199247619Y-115212380D01*
X199104761Y-115164761D01*
X199009523Y-115069523D01*
X198961904Y-114974285D01*
X198914285Y-114783809D01*
X198914285Y-114640952D01*
X198961904Y-114450476D01*
X199009523Y-114355238D01*
X199104761Y-114260000D01*
X199247619Y-114212380D01*
X199342857Y-114212380D01*
X199485714Y-114260000D01*
X199533333Y-114307619D01*
X200438095Y-114212380D02*
X199961904Y-114212380D01*
X199914285Y-114688571D01*
X199961904Y-114640952D01*
X200057142Y-114593333D01*
X200295238Y-114593333D01*
X200390476Y-114640952D01*
X200438095Y-114688571D01*
X200485714Y-114783809D01*
X200485714Y-115021904D01*
X200438095Y-115117142D01*
X200390476Y-115164761D01*
X200295238Y-115212380D01*
X200057142Y-115212380D01*
X199961904Y-115164761D01*
X199914285Y-115117142D01*
X194791904Y-119202380D02*
X194791904Y-118202380D01*
X195030000Y-118202380D01*
X195172857Y-118250000D01*
X195268095Y-118345238D01*
X195315714Y-118440476D01*
X195363333Y-118630952D01*
X195363333Y-118773809D01*
X195315714Y-118964285D01*
X195268095Y-119059523D01*
X195172857Y-119154761D01*
X195030000Y-119202380D01*
X194791904Y-119202380D01*
X196315714Y-119202380D02*
X195744285Y-119202380D01*
X196030000Y-119202380D02*
X196030000Y-118202380D01*
X195934761Y-118345238D01*
X195839523Y-118440476D01*
X195744285Y-118488095D01*
X201648095Y-122282380D02*
X201648095Y-121282380D01*
X201648095Y-121758571D02*
X202219523Y-121758571D01*
X202219523Y-122282380D02*
X202219523Y-121282380D01*
X203219523Y-122282380D02*
X202648095Y-122282380D01*
X202933809Y-122282380D02*
X202933809Y-121282380D01*
X202838571Y-121425238D01*
X202743333Y-121520476D01*
X202648095Y-121568095D01*
X197288095Y-122212380D02*
X197288095Y-121212380D01*
X197288095Y-121688571D02*
X197859523Y-121688571D01*
X197859523Y-122212380D02*
X197859523Y-121212380D01*
X198288095Y-121307619D02*
X198335714Y-121260000D01*
X198430952Y-121212380D01*
X198669047Y-121212380D01*
X198764285Y-121260000D01*
X198811904Y-121307619D01*
X198859523Y-121402857D01*
X198859523Y-121498095D01*
X198811904Y-121640952D01*
X198240476Y-122212380D01*
X198859523Y-122212380D01*
X196846666Y-119862380D02*
X196846666Y-120576666D01*
X196799047Y-120719523D01*
X196703809Y-120814761D01*
X196560952Y-120862380D01*
X196465714Y-120862380D01*
X197275238Y-119957619D02*
X197322857Y-119910000D01*
X197418095Y-119862380D01*
X197656190Y-119862380D01*
X197751428Y-119910000D01*
X197799047Y-119957619D01*
X197846666Y-120052857D01*
X197846666Y-120148095D01*
X197799047Y-120290952D01*
X197227619Y-120862380D01*
X197846666Y-120862380D01*
X177916666Y-114502380D02*
X177916666Y-115216666D01*
X177869047Y-115359523D01*
X177773809Y-115454761D01*
X177630952Y-115502380D01*
X177535714Y-115502380D01*
X178297619Y-114502380D02*
X178916666Y-114502380D01*
X178583333Y-114883333D01*
X178726190Y-114883333D01*
X178821428Y-114930952D01*
X178869047Y-114978571D01*
X178916666Y-115073809D01*
X178916666Y-115311904D01*
X178869047Y-115407142D01*
X178821428Y-115454761D01*
X178726190Y-115502380D01*
X178440476Y-115502380D01*
X178345238Y-115454761D01*
X178297619Y-115407142D01*
X197803333Y-105062380D02*
X197327142Y-105062380D01*
X197327142Y-104062380D01*
X198660476Y-105062380D02*
X198089047Y-105062380D01*
X198374761Y-105062380D02*
X198374761Y-104062380D01*
X198279523Y-104205238D01*
X198184285Y-104300476D01*
X198089047Y-104348095D01*
X187144761Y-112907619D02*
X187049523Y-112860000D01*
X186954285Y-112764761D01*
X186811428Y-112621904D01*
X186716190Y-112574285D01*
X186620952Y-112574285D01*
X186668571Y-112812380D02*
X186573333Y-112764761D01*
X186478095Y-112669523D01*
X186430476Y-112479047D01*
X186430476Y-112145714D01*
X186478095Y-111955238D01*
X186573333Y-111860000D01*
X186668571Y-111812380D01*
X186859047Y-111812380D01*
X186954285Y-111860000D01*
X187049523Y-111955238D01*
X187097142Y-112145714D01*
X187097142Y-112479047D01*
X187049523Y-112669523D01*
X186954285Y-112764761D01*
X186859047Y-112812380D01*
X186668571Y-112812380D01*
X188049523Y-112812380D02*
X187478095Y-112812380D01*
X187763809Y-112812380D02*
X187763809Y-111812380D01*
X187668571Y-111955238D01*
X187573333Y-112050476D01*
X187478095Y-112098095D01*
X193293333Y-119282380D02*
X192960000Y-118806190D01*
X192721904Y-119282380D02*
X192721904Y-118282380D01*
X193102857Y-118282380D01*
X193198095Y-118330000D01*
X193245714Y-118377619D01*
X193293333Y-118472857D01*
X193293333Y-118615714D01*
X193245714Y-118710952D01*
X193198095Y-118758571D01*
X193102857Y-118806190D01*
X192721904Y-118806190D01*
X194245714Y-119282380D02*
X193674285Y-119282380D01*
X193960000Y-119282380D02*
X193960000Y-118282380D01*
X193864761Y-118425238D01*
X193769523Y-118520476D01*
X193674285Y-118568095D01*
X201593333Y-115142380D02*
X201260000Y-114666190D01*
X201021904Y-115142380D02*
X201021904Y-114142380D01*
X201402857Y-114142380D01*
X201498095Y-114190000D01*
X201545714Y-114237619D01*
X201593333Y-114332857D01*
X201593333Y-114475714D01*
X201545714Y-114570952D01*
X201498095Y-114618571D01*
X201402857Y-114666190D01*
X201021904Y-114666190D01*
X201974285Y-114237619D02*
X202021904Y-114190000D01*
X202117142Y-114142380D01*
X202355238Y-114142380D01*
X202450476Y-114190000D01*
X202498095Y-114237619D01*
X202545714Y-114332857D01*
X202545714Y-114428095D01*
X202498095Y-114570952D01*
X201926666Y-115142380D01*
X202545714Y-115142380D01*
X189002380Y-113416666D02*
X188526190Y-113750000D01*
X189002380Y-113988095D02*
X188002380Y-113988095D01*
X188002380Y-113607142D01*
X188050000Y-113511904D01*
X188097619Y-113464285D01*
X188192857Y-113416666D01*
X188335714Y-113416666D01*
X188430952Y-113464285D01*
X188478571Y-113511904D01*
X188526190Y-113607142D01*
X188526190Y-113988095D01*
X188002380Y-113083333D02*
X188002380Y-112464285D01*
X188383333Y-112797619D01*
X188383333Y-112654761D01*
X188430952Y-112559523D01*
X188478571Y-112511904D01*
X188573809Y-112464285D01*
X188811904Y-112464285D01*
X188907142Y-112511904D01*
X188954761Y-112559523D01*
X189002380Y-112654761D01*
X189002380Y-112940476D01*
X188954761Y-113035714D01*
X188907142Y-113083333D01*
X192844285Y-122182380D02*
X193415714Y-122182380D01*
X193130000Y-123182380D02*
X193130000Y-122182380D01*
X193749047Y-123182380D02*
X193749047Y-122182380D01*
X193749047Y-122658571D02*
X194320476Y-122658571D01*
X194320476Y-123182380D02*
X194320476Y-122182380D01*
X195320476Y-123182380D02*
X194749047Y-123182380D01*
X195034761Y-123182380D02*
X195034761Y-122182380D01*
X194939523Y-122325238D01*
X194844285Y-122420476D01*
X194749047Y-122468095D01*
X173352380Y-108941904D02*
X174161904Y-108941904D01*
X174257142Y-108894285D01*
X174304761Y-108846666D01*
X174352380Y-108751428D01*
X174352380Y-108560952D01*
X174304761Y-108465714D01*
X174257142Y-108418095D01*
X174161904Y-108370476D01*
X173352380Y-108370476D01*
X174352380Y-107370476D02*
X174352380Y-107941904D01*
X174352380Y-107656190D02*
X173352380Y-107656190D01*
X173495238Y-107751428D01*
X173590476Y-107846666D01*
X173638095Y-107941904D01*
X184528095Y-112812380D02*
X184528095Y-113621904D01*
X184575714Y-113717142D01*
X184623333Y-113764761D01*
X184718571Y-113812380D01*
X184909047Y-113812380D01*
X185004285Y-113764761D01*
X185051904Y-113717142D01*
X185099523Y-113621904D01*
X185099523Y-112812380D01*
X185528095Y-112907619D02*
X185575714Y-112860000D01*
X185670952Y-112812380D01*
X185909047Y-112812380D01*
X186004285Y-112860000D01*
X186051904Y-112907619D01*
X186099523Y-113002857D01*
X186099523Y-113098095D01*
X186051904Y-113240952D01*
X185480476Y-113812380D01*
X186099523Y-113812380D01*
X185748095Y-101202380D02*
X185748095Y-102011904D01*
X185795714Y-102107142D01*
X185843333Y-102154761D01*
X185938571Y-102202380D01*
X186129047Y-102202380D01*
X186224285Y-102154761D01*
X186271904Y-102107142D01*
X186319523Y-102011904D01*
X186319523Y-101202380D01*
X186700476Y-101202380D02*
X187319523Y-101202380D01*
X186986190Y-101583333D01*
X187129047Y-101583333D01*
X187224285Y-101630952D01*
X187271904Y-101678571D01*
X187319523Y-101773809D01*
X187319523Y-102011904D01*
X187271904Y-102107142D01*
X187224285Y-102154761D01*
X187129047Y-102202380D01*
X186843333Y-102202380D01*
X186748095Y-102154761D01*
X186700476Y-102107142D01*
X173452380Y-104333333D02*
X174166666Y-104333333D01*
X174309523Y-104380952D01*
X174404761Y-104476190D01*
X174452380Y-104619047D01*
X174452380Y-104714285D01*
X174452380Y-103333333D02*
X174452380Y-103904761D01*
X174452380Y-103619047D02*
X173452380Y-103619047D01*
X173595238Y-103714285D01*
X173690476Y-103809523D01*
X173738095Y-103904761D01*
X197982380Y-116109166D02*
X197506190Y-116442500D01*
X197982380Y-116680595D02*
X196982380Y-116680595D01*
X196982380Y-116299642D01*
X197030000Y-116204404D01*
X197077619Y-116156785D01*
X197172857Y-116109166D01*
X197315714Y-116109166D01*
X197410952Y-116156785D01*
X197458571Y-116204404D01*
X197506190Y-116299642D01*
X197506190Y-116680595D01*
X197315714Y-115252023D02*
X197982380Y-115252023D01*
X196934761Y-115490119D02*
X197649047Y-115728214D01*
X197649047Y-115109166D01*
X190082380Y-103886666D02*
X189606190Y-104220000D01*
X190082380Y-104458095D02*
X189082380Y-104458095D01*
X189082380Y-104077142D01*
X189130000Y-103981904D01*
X189177619Y-103934285D01*
X189272857Y-103886666D01*
X189415714Y-103886666D01*
X189510952Y-103934285D01*
X189558571Y-103981904D01*
X189606190Y-104077142D01*
X189606190Y-104458095D01*
X189082380Y-102981904D02*
X189082380Y-103458095D01*
X189558571Y-103505714D01*
X189510952Y-103458095D01*
X189463333Y-103362857D01*
X189463333Y-103124761D01*
X189510952Y-103029523D01*
X189558571Y-102981904D01*
X189653809Y-102934285D01*
X189891904Y-102934285D01*
X189987142Y-102981904D01*
X190034761Y-103029523D01*
X190082380Y-103124761D01*
X190082380Y-103362857D01*
X190034761Y-103458095D01*
X189987142Y-103505714D01*
M02*
